<svg width="48" height="48" viewBox="0 0 48 48" fill="none" xmlns="http://www.w3.org/2000/svg">
<path d="M7.2 13.2C7.2 11.6087 7.83214 10.0825 8.95736 8.95731C10.0826 7.83209 11.6087 7.19995 13.2 7.19995H34.8C36.3913 7.19995 37.9174 7.83209 39.0426 8.95731C40.1679 10.0825 40.8 11.6087 40.8 13.2V34.7999C40.8 36.3912 40.1679 37.9174 39.0426 39.0426C37.9174 40.1678 36.3913 40.7999 34.8 40.7999H13.2C11.6087 40.7999 10.0826 40.1678 8.95736 39.0426C7.83214 37.9174 7.2 36.3912 7.2 34.7999V13.2ZM13.2 9.59995C12.2452 9.59995 11.3295 9.97924 10.6544 10.6544C9.97928 11.3295 9.6 12.2452 9.6 13.2V14.4H38.4V13.2C38.4 12.2452 38.0207 11.3295 37.3456 10.6544C36.6704 9.97924 35.7548 9.59995 34.8 9.59995H13.2ZM38.4 16.8H9.6V34.7999C9.6 35.7547 9.97928 36.6704 10.6544 37.3455C11.3295 38.0207 12.2452 38.4 13.2 38.4H34.8C35.7548 38.4 36.6704 38.0207 37.3456 37.3455C38.0207 36.6704 38.4 35.7547 38.4 34.7999V16.8ZM12 21.6C12 20.9634 12.2529 20.353 12.7029 19.9029C13.153 19.4528 13.7635 19.2 14.4 19.2H19.2C19.8365 19.2 20.447 19.4528 20.8971 19.9029C21.3471 20.353 21.6 20.9634 21.6 21.6V33.5999C21.6 34.2365 21.3471 34.8469 20.8971 35.297C20.447 35.7471 19.8365 36 19.2 36H14.4C13.7635 36 13.153 35.7471 12.7029 35.297C12.2529 34.8469 12 34.2365 12 33.5999V21.6ZM19.2 21.6H14.4V33.5999H19.2V21.6ZM24 25.1999C24 24.8817 24.1264 24.5765 24.3515 24.3514C24.5765 24.1264 24.8817 24 25.2 24H32.4C32.7183 24 33.0235 24.1264 33.2485 24.3514C33.4736 24.5765 33.6 24.8817 33.6 25.1999C33.6 25.5182 33.4736 25.8234 33.2485 26.0485C33.0235 26.2735 32.7183 26.4 32.4 26.4H25.2C24.8817 26.4 24.5765 26.2735 24.3515 26.0485C24.1264 25.8234 24 25.5182 24 25.1999ZM25.2 19.2C24.8817 19.2 24.5765 19.3264 24.3515 19.5514C24.1264 19.7765 24 20.0817 24 20.4C24 20.7182 24.1264 21.0234 24.3515 21.2485C24.5765 21.4735 24.8817 21.6 25.2 21.6H34.8C35.1183 21.6 35.4235 21.4735 35.6485 21.2485C35.8736 21.0234 36 20.7182 36 20.4C36 20.0817 35.8736 19.7765 35.6485 19.5514C35.4235 19.3264 35.1183 19.2 34.8 19.2H25.2Z" fill="#0451BF"/>
</svg>
