<svg width="48" height="48" viewBox="0 0 48 48" fill="none" xmlns="http://www.w3.org/2000/svg">
<path d="M33.6001 7.19995C33.9183 7.19995 34.2236 7.32638 34.4486 7.55142C34.6736 7.77647 34.8001 8.08169 34.8001 8.39995C34.8001 8.71821 34.6736 9.02344 34.4486 9.24848C34.2236 9.47352 33.9183 9.59995 33.6001 9.59995H31.2097V20.8416C31.2097 22.2336 31.5553 23.6016 32.2177 24.8256L37.9657 35.496C38.2614 36.0443 38.4098 36.6601 38.3962 37.2829C38.3827 37.9058 38.2077 38.5145 37.8885 39.0495C37.5692 39.5845 37.1166 40.0275 36.5748 40.3352C36.033 40.6429 35.4207 40.8047 34.7977 40.8048H13.2049C12.5818 40.8047 11.9695 40.6429 11.4277 40.3352C10.886 40.0275 10.4333 39.5845 10.1141 39.0495C9.7948 38.5145 9.61985 37.9058 9.60632 37.2829C9.59279 36.6601 9.74114 36.0443 10.0369 35.496L15.7825 24.8328C16.4415 23.6083 16.7862 22.2393 16.7857 20.8488V9.59995H14.4001C14.0818 9.59995 13.7766 9.47352 13.5515 9.24848C13.3265 9.02344 13.2001 8.71821 13.2001 8.39995C13.2001 8.08169 13.3265 7.77647 13.5515 7.55142C13.7766 7.32638 14.0818 7.19995 14.4001 7.19995H33.6001ZM19.1857 9.59995V20.8488C19.1858 22.6365 18.7421 24.3963 17.8945 25.9704L16.3705 28.8H31.6321L30.1033 25.9656C29.2544 24.391 28.8099 22.6303 28.8097 20.8416V9.59995H19.1857ZM32.9233 31.2H15.0769L12.1489 36.6336C12.0499 36.8164 12.0002 37.0218 12.0045 37.2297C12.0088 37.4375 12.067 37.6407 12.1735 37.8193C12.28 37.9978 12.431 38.1457 12.6118 38.2483C12.7926 38.351 12.997 38.4049 13.2049 38.4048H34.7977C35.0056 38.4049 35.2099 38.351 35.3907 38.2483C35.5716 38.1457 35.7226 37.9978 35.8291 37.8193C35.9355 37.6407 35.9938 37.4375 35.9981 37.2297C36.0024 37.0218 35.9526 36.8164 35.8537 36.6336L32.9233 31.2Z" fill="#04459F"/>
</svg>
