<svg width="48" height="48" viewBox="0 0 48 48" fill="none" xmlns="http://www.w3.org/2000/svg">
<path d="M13.4999 6C11.5108 6 9.60316 6.79018 8.19664 8.1967C6.79012 9.60322 5.99994 11.5109 5.99994 13.5V18.879L4.06194 16.938C3.92248 16.7985 3.75691 16.6879 3.57469 16.6124C3.39247 16.537 3.19717 16.4981 2.99994 16.4981C2.60161 16.4981 2.2196 16.6563 1.93794 16.938C1.65628 17.2197 1.49805 17.6017 1.49805 18C1.49805 18.3983 1.65628 18.7803 1.93794 19.062L6.43794 23.562C6.57728 23.7017 6.7428 23.8125 6.92504 23.8881C7.10728 23.9638 7.30264 24.0027 7.49994 24.0027C7.69724 24.0027 7.89261 23.9638 8.07484 23.8881C8.25708 23.8125 8.4226 23.7017 8.56194 23.562L13.0619 19.062C13.3436 18.7803 13.5018 18.3983 13.5018 18C13.5018 17.6017 13.3436 17.2197 13.0619 16.938C12.7803 16.6563 12.3983 16.4981 11.9999 16.4981C11.6016 16.4981 11.2196 16.6563 10.9379 16.938L8.99994 18.879V13.5C8.99994 12.3065 9.47405 11.1619 10.318 10.318C11.1619 9.47411 12.3065 9 13.4999 9H34.4999C35.6934 9 36.838 9.47411 37.6819 10.318C38.5258 11.1619 38.9999 12.3065 38.9999 13.5V15H15.3539C16.1189 15.852 16.4999 16.926 16.4999 18H38.9999V34.5C38.9999 35.6935 38.5258 36.8381 37.6819 37.682C36.838 38.5259 35.6934 39 34.4999 39H13.4999C12.3065 39 11.1619 38.5259 10.318 37.682C9.47405 36.8381 8.99994 35.6935 8.99994 34.5V28.5C8.99994 28.1022 8.84191 27.7206 8.5606 27.4393C8.2793 27.158 7.89777 27 7.49994 27C7.10212 27 6.72059 27.158 6.43928 27.4393C6.15798 27.7206 5.99994 28.1022 5.99994 28.5V34.5C5.99994 36.4891 6.79012 38.3968 8.19664 39.8033C9.60316 41.2098 11.5108 42 13.4999 42H34.4999C36.4891 42 38.3967 41.2098 39.8032 39.8033C41.2098 38.3968 41.9999 36.4891 41.9999 34.5V13.5C41.9999 11.5109 41.2098 9.60322 39.8032 8.1967C38.3967 6.79018 36.4891 6 34.4999 6H13.4999ZM15.7439 26.991C16.3395 26.991 16.9106 26.7544 17.3317 26.3333C17.7529 25.9122 17.9894 25.341 17.9894 24.7455C17.9894 24.15 17.7529 23.5788 17.3317 23.1577C16.9106 22.7366 16.3395 22.5 15.7439 22.5C15.1484 22.5 14.5772 22.7366 14.1561 23.1577C13.735 23.5788 13.4984 24.15 13.4984 24.7455C13.4984 25.341 13.735 25.9122 14.1561 26.3333C14.5772 26.7544 15.1484 26.991 15.7439 26.991ZM17.9909 32.247C17.9909 32.8425 17.7544 33.4137 17.3333 33.8348C16.9121 34.2559 16.341 34.4925 15.7454 34.4925C15.1499 34.4925 14.5787 34.2559 14.1576 33.8348C13.7365 33.4137 13.4999 32.8425 13.4999 32.247C13.4999 31.6515 13.7365 31.0803 14.1576 30.6592C14.5787 30.2381 15.1499 30.0015 15.7454 30.0015C16.341 30.0015 16.9121 30.2381 17.3333 30.6592C17.7544 31.0803 17.9909 31.6515 17.9909 32.247ZM23.9999 26.991C24.5955 26.991 25.1666 26.7544 25.5877 26.3333C26.0089 25.9122 26.2454 25.341 26.2454 24.7455C26.2454 24.15 26.0089 23.5788 25.5877 23.1577C25.1666 22.7366 24.5955 22.5 23.9999 22.5C23.4044 22.5 22.8332 22.7366 22.4121 23.1577C21.991 23.5788 21.7544 24.15 21.7544 24.7455C21.7544 25.341 21.991 25.9122 22.4121 26.3333C22.8332 26.7544 23.4044 26.991 23.9999 26.991ZM26.2469 32.247C26.2469 32.8425 26.0104 33.4137 25.5892 33.8348C25.1681 34.2559 24.597 34.4925 24.0014 34.4925C23.4059 34.4925 22.8347 34.2559 22.4136 33.8348C21.9925 33.4137 21.7559 32.8425 21.7559 32.247C21.7559 31.6515 21.9925 31.0803 22.4136 30.6592C22.8347 30.2381 23.4059 30.0015 24.0014 30.0015C24.597 30.0015 25.1681 30.2381 25.5892 30.6592C26.0104 31.0803 26.2469 31.6515 26.2469 32.247ZM32.2469 26.991C32.8425 26.991 33.4136 26.7544 33.8347 26.3333C34.2559 25.9122 34.4924 25.341 34.4924 24.7455C34.4924 24.15 34.2559 23.5788 33.8347 23.1577C33.4136 22.7366 32.8425 22.5 32.2469 22.5C31.6514 22.5 31.0802 22.7366 30.6591 23.1577C30.238 23.5788 30.0014 24.15 30.0014 24.7455C30.0014 25.341 30.238 25.9122 30.6591 26.3333C31.0802 26.7544 31.6514 26.991 32.2469 26.991Z" fill="#04459F"/>
</svg>
