<svg width="48" height="48" viewBox="0 0 48 48" fill="none" xmlns="http://www.w3.org/2000/svg">
<path d="M17.9998 28.5C19.3303 28.4997 20.6231 28.9415 21.675 29.7561C22.7269 30.5707 23.4782 31.7118 23.8108 33H40.4998C40.8747 32.9993 41.2362 33.139 41.5132 33.3915C41.7902 33.6441 41.9626 33.9912 41.9965 34.3645C42.0303 34.7378 41.9232 35.1102 41.6962 35.4085C41.4691 35.7068 41.1387 35.9092 40.7698 35.976L40.4998 36L23.8108 36.003C23.4793 37.2923 22.7285 38.4347 21.6765 39.2505C20.6245 40.0662 19.3311 40.5089 17.9998 40.5089C16.6686 40.5089 15.3752 40.0662 14.3232 39.2505C13.2712 38.4347 12.5203 37.2923 12.1888 36.003L7.49984 36C7.125 36.0007 6.76348 35.861 6.48649 35.6085C6.20949 35.3559 6.03708 35.0088 6.00321 34.6355C5.96934 34.2622 6.07647 33.8898 6.30349 33.5915C6.53052 33.2932 6.86099 33.0908 7.22984 33.024L7.49984 33H12.1888C12.5214 31.7118 13.2728 30.5707 14.3247 29.7561C15.3766 28.9415 16.6694 28.4997 17.9998 28.5ZM17.9998 31.5C17.2042 31.5 16.4411 31.8161 15.8785 32.3787C15.3159 32.9413 14.9998 33.7044 14.9998 34.5C14.9998 35.2956 15.3159 36.0587 15.8785 36.6213C16.4411 37.1839 17.2042 37.5 17.9998 37.5C18.7955 37.5 19.5585 37.1839 20.1212 36.6213C20.6838 36.0587 20.9998 35.2956 20.9998 34.5C20.9998 33.7044 20.6838 32.9413 20.1212 32.3787C19.5585 31.8161 18.7955 31.5 17.9998 31.5ZM29.9998 7.5C31.3303 7.49966 32.6231 7.94153 33.675 8.75612C34.7269 9.57071 35.4782 10.7118 35.8108 12H40.4998C40.8747 11.9993 41.2362 12.139 41.5132 12.3915C41.7902 12.6441 41.9626 12.9912 41.9965 13.3645C42.0303 13.7378 41.9232 14.1102 41.6962 14.4085C41.4691 14.7068 41.1387 14.9092 40.7698 14.976L40.4998 15L35.8108 15.003C35.4793 16.2923 34.7285 17.4347 33.6765 18.2505C32.6245 19.0662 31.3311 19.5089 29.9998 19.5089C28.6686 19.5089 27.3752 19.0662 26.3232 18.2505C25.2712 17.4347 24.5203 16.2923 24.1888 15.003L7.49984 15C7.125 15.0007 6.76348 14.861 6.48649 14.6085C6.20949 14.3559 6.03708 14.0088 6.00321 13.6355C5.96934 13.2622 6.07647 12.8898 6.30349 12.5915C6.53052 12.2932 6.86099 12.0908 7.22984 12.024L7.49984 12H24.1888C24.5214 10.7118 25.2728 9.57071 26.3247 8.75612C27.3766 7.94153 28.6694 7.49966 29.9998 7.5ZM29.9998 10.5C29.2042 10.5 28.4411 10.8161 27.8785 11.3787C27.3159 11.9413 26.9998 12.7044 26.9998 13.5C26.9998 14.2956 27.3159 15.0587 27.8785 15.6213C28.4411 16.1839 29.2042 16.5 29.9998 16.5C30.7955 16.5 31.5585 16.1839 32.1212 15.6213C32.6838 15.0587 32.9998 14.2956 32.9998 13.5C32.9998 12.7044 32.6838 11.9413 32.1212 11.3787C31.5585 10.8161 30.7955 10.5 29.9998 10.5Z" fill="#04459F"/>
</svg>
