<svg width="48" height="48" viewBox="0 0 48 48" fill="none" xmlns="http://www.w3.org/2000/svg">
<path d="M24 27C23.2044 27 22.4413 27.3161 21.8787 27.8787C21.3161 28.4413 21 29.2044 21 30C21 30.7956 21.3161 31.5587 21.8787 32.1213C22.4413 32.6839 23.2044 33 24 33C24.7956 33 25.5587 32.6839 26.1213 32.1213C26.6839 31.5587 27 30.7956 27 30C27 29.2044 26.6839 28.4413 26.1213 27.8787C25.5587 27.3161 24.7956 27 24 27ZM15 30C15 27.6131 15.9482 25.3239 17.636 23.636C19.3239 21.9482 21.6131 21 24 21C26.3869 21 28.6761 21.9482 30.364 23.636C32.0518 25.3239 33 27.6131 33 30C33 32.3869 32.0518 34.6761 30.364 36.364C28.6761 38.0518 26.3869 39 24 39C21.6131 39 19.3239 38.0518 17.636 36.364C15.9482 34.6761 15 32.3869 15 30ZM24 24C22.4087 24 20.8826 24.6321 19.7574 25.7574C18.6321 26.8826 18 28.4087 18 30C18 31.5913 18.6321 33.1174 19.7574 34.2426C20.8826 35.3679 22.4087 36 24 36C25.5913 36 27.1174 35.3679 28.2426 34.2426C29.3679 33.1174 30 31.5913 30 30C30 28.4087 29.3679 26.8826 28.2426 25.7574C27.1174 24.6321 25.5913 24 24 24ZM3 10.5C3 9.30653 3.47411 8.16193 4.31802 7.31802C5.16193 6.47411 6.30653 6 7.5 6H40.5C41.6935 6 42.8381 6.47411 43.682 7.31802C44.5259 8.16193 45 9.30653 45 10.5V13.5C45.0005 14.431 44.7122 15.3392 44.1749 16.0995C43.6376 16.8598 42.8777 17.4347 42 17.745V27C42 31.7739 40.1036 36.3523 36.7279 39.7279C33.3523 43.1036 28.7739 45 24 45C19.2261 45 14.6477 43.1036 11.2721 39.7279C7.89642 36.3523 6 31.7739 6 27V17.745C5.12227 17.4347 4.36239 16.8598 3.82508 16.0995C3.28778 15.3392 2.99951 14.431 3 13.5V10.5ZM7.5 15H40.5C40.8978 15 41.2794 14.842 41.5607 14.5607C41.842 14.2794 42 13.8978 42 13.5V10.5C42 10.1022 41.842 9.72064 41.5607 9.43934C41.2794 9.15804 40.8978 9 40.5 9H7.5C7.10218 9 6.72065 9.15804 6.43934 9.43934C6.15804 9.72064 6 10.1022 6 10.5V13.5C6 13.8978 6.15804 14.2794 6.43934 14.5607C6.72065 14.842 7.10218 15 7.5 15ZM9 18V27C9 30.9782 10.5804 34.7936 13.3934 37.6066C16.2064 40.4196 20.0218 42 24 42C27.9782 42 31.7936 40.4196 34.6066 37.6066C37.4196 34.7936 39 30.9782 39 27V18H9Z" fill="#04459F"/>
</svg>
