<svg width="48" height="48" viewBox="0 0 48 48" fill="none" xmlns="http://www.w3.org/2000/svg">
<path d="M34.5 6C36.4891 6 38.3968 6.79018 39.8033 8.1967C41.2098 9.60322 42 11.5109 42 13.5V34.5C42 36.4891 41.2098 38.3968 39.8033 39.8033C38.3968 41.2098 36.4891 42 34.5 42H13.5C11.5109 42 9.60322 41.2098 8.1967 39.8033C6.79018 38.3968 6 36.4891 6 34.5V13.5C6 11.5109 6.79018 9.60322 8.1967 8.1967C9.60322 6.79018 11.5109 6 13.5 6H34.5ZM13.5 9C12.3065 9 11.1619 9.47411 10.318 10.318C9.47411 11.1619 9 12.3065 9 13.5V34.5C9 35.6935 9.47411 36.8381 10.318 37.682C11.1619 38.5259 12.3065 39 13.5 39H34.5C35.6935 39 36.8381 38.5259 37.682 37.682C38.5259 36.8381 39 35.6935 39 34.5V13.5C39 12.3065 38.5259 11.1619 37.682 10.318C36.8381 9.47411 35.6935 9 34.5 9H13.5ZM18 22.5C19.5913 22.5 21.1174 23.1321 22.2426 24.2574C23.3679 25.3826 24 26.9087 24 28.5C24 30.0913 23.3679 31.6174 22.2426 32.7426C21.1174 33.8679 19.5913 34.5 18 34.5C16.4087 34.5 14.8826 33.8679 13.7574 32.7426C12.6321 31.6174 12 30.0913 12 28.5C12 26.9087 12.6321 25.3826 13.7574 24.2574C14.8826 23.1321 16.4087 22.5 18 22.5ZM28.5 24C28.8978 24 29.2794 24.158 29.5607 24.4393C29.842 24.7206 30 25.1022 30 25.5V33C30 33.3978 29.842 33.7794 29.5607 34.0607C29.2794 34.342 28.8978 34.5 28.5 34.5C28.1022 34.5 27.7206 34.342 27.4393 34.0607C27.158 33.7794 27 33.3978 27 33V25.5C27 25.1022 27.158 24.7206 27.4393 24.4393C27.7206 24.158 28.1022 24 28.5 24ZM34.5 21C34.8978 21 35.2794 21.158 35.5607 21.4393C35.842 21.7206 36 22.1022 36 22.5V33C36 33.3978 35.842 33.7794 35.5607 34.0607C35.2794 34.342 34.8978 34.5 34.5 34.5C34.1022 34.5 33.7206 34.342 33.4393 34.0607C33.158 33.7794 33 33.3978 33 33V22.5C33 22.1022 33.158 21.7206 33.4393 21.4393C33.7206 21.158 34.1022 21 34.5 21ZM18 25.5C17.2044 25.5 16.4413 25.8161 15.8787 26.3787C15.3161 26.9413 15 27.7044 15 28.5C15 29.2956 15.3161 30.0587 15.8787 30.6213C16.4413 31.1839 17.2044 31.5 18 31.5C18.7956 31.5 19.5587 31.1839 20.1213 30.6213C20.6839 30.0587 21 29.2956 21 28.5C21 27.7044 20.6839 26.9413 20.1213 26.3787C19.5587 25.8161 18.7956 25.5 18 25.5ZM34.5 15C34.8978 15 35.2794 15.158 35.5607 15.4393C35.842 15.7206 36 16.1022 36 16.5C36 16.8978 35.842 17.2794 35.5607 17.5607C35.2794 17.842 34.8978 18 34.5 18H13.5C13.1022 18 12.7206 17.842 12.4393 17.5607C12.158 17.2794 12 16.8978 12 16.5C12 16.1022 12.158 15.7206 12.4393 15.4393C12.7206 15.158 13.1022 15 13.5 15H34.5Z" fill="#04459F"/>
</svg>
