<svg width="48" height="48" viewBox="0 0 48 48" fill="none" xmlns="http://www.w3.org/2000/svg">
<path d="M25 5.5C25 5.10218 24.842 4.72064 24.5607 4.43934C24.2794 4.15804 23.8978 4 23.5 4C23.1022 4 22.7206 4.15804 22.4393 4.43934C22.158 4.72064 22 5.10218 22 5.5V6H10.5C8.77609 6 7.12279 6.68482 5.90381 7.90381C4.68482 9.12279 4 10.7761 4 12.5V31.5C4 33.2239 4.68482 34.8772 5.90381 36.0962C7.12279 37.3152 8.77609 38 10.5 38H15.296L12.346 41.54C12.0914 41.8458 11.9687 42.2402 12.0049 42.6365C12.0411 43.0327 12.2332 43.3984 12.539 43.653C12.8448 43.9076 13.2392 44.0303 13.6355 43.9941C14.0317 43.9579 14.3974 43.7658 14.652 43.46L19.2 38H26.216C26.5702 36.7844 27.3286 35.726 28.366 35H10.5C9.57174 35 8.6815 34.6313 8.02513 33.9749C7.36875 33.3185 7 32.4283 7 31.5V12.5C7 10.568 8.568 9 10.5 9H37.5C39.432 9 41 10.568 41 12.5V23.254C41.9262 23.899 42.6828 24.7583 43.2052 25.7588C43.7275 26.7593 44.0002 27.8713 44 29V12.5C44 11.6464 43.8319 10.8012 43.5052 10.0126C43.1786 9.22394 42.6998 8.50739 42.0962 7.90381C41.4926 7.30022 40.7761 6.82144 39.9874 6.49478C39.1988 6.16813 38.3536 6 37.5 6H25V5.5ZM12 15.5C12 15.1022 12.158 14.7206 12.4393 14.4393C12.7206 14.158 13.1022 14 13.5 14H21.5C21.8978 14 22.2794 14.158 22.5607 14.4393C22.842 14.7206 23 15.1022 23 15.5C23 15.8978 22.842 16.2794 22.5607 16.5607C22.2794 16.842 21.8978 17 21.5 17H13.5C13.1022 17 12.7206 16.842 12.4393 16.5607C12.158 16.2794 12 15.8978 12 15.5ZM13.5 20C13.1022 20 12.7206 20.158 12.4393 20.4393C12.158 20.7206 12 21.1022 12 21.5C12 21.8978 12.158 22.2794 12.4393 22.5607C12.7206 22.842 13.1022 23 13.5 23H26.5C26.8978 23 27.2794 22.842 27.5607 22.5607C27.842 22.2794 28 21.8978 28 21.5C28 21.1022 27.842 20.7206 27.5607 20.4393C27.2794 20.158 26.8978 20 26.5 20H13.5ZM12 27.5C12 27.1022 12.158 26.7206 12.4393 26.4393C12.7206 26.158 13.1022 26 13.5 26H24.5C24.8978 26 25.2794 26.158 25.5607 26.4393C25.842 26.7206 26 27.1022 26 27.5C26 27.8978 25.842 28.2794 25.5607 28.5607C25.2794 28.842 24.8978 29 24.5 29H13.5C13.1022 29 12.7206 28.842 12.4393 28.5607C12.158 28.2794 12 27.8978 12 27.5ZM42 29C42 30.3261 41.4732 31.5979 40.5355 32.5355C39.5979 33.4732 38.3261 34 37 34C35.6739 34 34.4021 33.4732 33.4645 32.5355C32.5268 31.5979 32 30.3261 32 29C32 27.6739 32.5268 26.4021 33.4645 25.4645C34.4021 24.5268 35.6739 24 37 24C38.3261 24 39.5979 24.5268 40.5355 25.4645C41.4732 26.4021 42 27.6739 42 29ZM46 39.75C46 42.862 43.428 46 37 46C30.572 46 28 42.874 28 39.75V39.544C28 37.584 29.588 36 31.546 36H42.454C44.414 36 46 37.586 46 39.544V39.75Z" fill="#04459F"/>
</svg>
