<svg width="48" height="48" viewBox="0 0 48 48" fill="none" xmlns="http://www.w3.org/2000/svg">
<path d="M23.9998 4.80005C30.7606 4.80005 34.5958 9.41525 35.1526 14.9904H35.3206C39.6766 14.9904 43.1998 18.6192 43.1998 23.0952C43.1998 23.324 43.191 23.5504 43.1734 23.7745C42.3994 22.8099 41.5003 21.9527 40.4998 21.2256C39.7558 18.9864 37.7086 17.3904 35.323 17.3904H35.1526C34.5576 17.3905 33.9839 17.1695 33.5426 16.7703C33.1014 16.3712 32.8241 15.8224 32.7646 15.2304C32.2798 10.38 29.0614 7.20005 23.9998 7.20005C18.9262 7.20005 15.7222 10.3584 15.235 15.228C15.1761 15.8205 14.899 16.3698 14.4577 16.7695C14.0164 17.1691 13.4424 17.3904 12.847 17.3904H12.679C9.6646 17.3904 7.1998 19.9296 7.1998 23.0952C7.1998 26.2633 9.66701 28.8 12.6766 28.8H19.075C18.8623 29.5858 18.7201 30.389 18.6502 31.2001H12.6766C8.32541 31.2001 4.7998 27.5713 4.7998 23.0952C4.7998 18.7681 8.09501 15.2328 12.2446 15.0024L12.847 14.9904C13.4086 9.37925 17.239 4.80005 23.9998 4.80005ZM21.5998 32.4C21.5998 35.2644 22.7377 38.0114 24.7631 40.0368C26.7884 42.0622 29.5355 43.2001 32.3998 43.2001C35.2641 43.2001 38.0112 42.0622 40.0366 40.0368C42.062 38.0114 43.1998 35.2644 43.1998 32.4C43.1998 29.5357 42.062 26.7887 40.0366 24.7633C38.0112 22.7379 35.2641 21.6 32.3998 21.6C29.5355 21.6 26.7884 22.7379 24.7631 24.7633C22.7377 26.7887 21.5998 29.5357 21.5998 32.4ZM37.1998 25.2001C37.5181 25.2001 37.8233 25.3265 38.0483 25.5515C38.2734 25.7766 38.3998 26.0818 38.3998 26.4V30C38.3998 30.3183 38.2734 30.6235 38.0483 30.8486C37.8233 31.0736 37.5181 31.2001 37.1998 31.2001H33.5998C33.2815 31.2001 32.9763 31.0736 32.7513 30.8486C32.5262 30.6235 32.3998 30.3183 32.3998 30C32.3998 29.6818 32.5262 29.3766 32.7513 29.1515C32.9763 28.9265 33.2815 28.8 33.5998 28.8H34.723C33.8114 28.2955 32.7603 28.1013 31.7285 28.2468C30.6968 28.3923 29.7404 28.8695 29.0038 29.6065C28.7758 29.816 28.4757 29.9293 28.1661 29.9227C27.8565 29.916 27.5614 29.79 27.3426 29.5709C27.1238 29.3517 26.9982 29.0565 26.992 28.7469C26.9858 28.4373 27.0995 28.1373 27.3094 27.9096C28.43 26.789 29.8891 26.0694 31.4603 25.8624C33.0316 25.6554 34.6272 25.9726 35.9998 26.7649V26.4C35.9998 26.0818 36.1262 25.7766 36.3513 25.5515C36.5763 25.3265 36.8815 25.2001 37.1998 25.2001ZM35.0974 38.4768C34.0831 38.8865 32.9888 39.0596 31.8976 38.9831C30.8064 38.9066 29.747 38.5824 28.7998 38.0352V38.4001C28.7998 38.7183 28.6734 39.0235 28.4483 39.2486C28.2233 39.4736 27.9181 39.6001 27.5998 39.6001C27.2815 39.6001 26.9763 39.4736 26.7513 39.2486C26.5262 39.0235 26.3998 38.7183 26.3998 38.4001V34.8001C26.3998 34.4818 26.5262 34.1766 26.7513 33.9515C26.9763 33.7265 27.2815 33.6 27.5998 33.6H31.1998C31.5181 33.6 31.8233 33.7265 32.0483 33.9515C32.2734 34.1766 32.3998 34.4818 32.3998 34.8001C32.3998 35.1183 32.2734 35.4235 32.0483 35.6486C31.8233 35.8736 31.5181 36 31.1998 36H30.0766C30.1966 36.0672 30.3206 36.1288 30.4486 36.1848C31.3353 36.5793 32.3207 36.6957 33.2748 36.5188C34.229 36.3418 35.1071 35.8798 35.7934 35.1936C36.0197 34.9751 36.3229 34.8541 36.6375 34.8568C36.9521 34.8596 37.2531 34.9858 37.4756 35.2083C37.6981 35.4308 37.8243 35.7317 37.827 36.0464C37.8298 36.361 37.7088 36.6641 37.4902 36.8904C36.8062 37.5745 35.9926 38.1168 35.0974 38.4768Z" fill="#04459F"/>
</svg>
