<svg width="48" height="48" viewBox="0 0 48 48" fill="none" xmlns="http://www.w3.org/2000/svg">
<path d="M31.0489 9.72491C31.2383 9.2884 31.2472 8.79463 31.0736 8.35158C30.9 7.90853 30.558 7.55224 30.1225 7.36063C29.6869 7.16902 29.1932 7.15768 28.7493 7.32908C28.3054 7.50049 27.9474 7.84069 27.7537 8.27531L14.5537 38.2753C14.4485 38.493 14.3883 38.7296 14.3766 38.971C14.3649 39.2125 14.4019 39.4538 14.4855 39.6806C14.5691 39.9074 14.6975 40.1151 14.8631 40.2912C15.0286 40.4673 15.228 40.6083 15.4492 40.7056C15.6705 40.803 15.909 40.8549 16.1507 40.8581C16.3925 40.8613 16.6323 40.8157 16.856 40.7242C17.0798 40.6327 17.2828 40.497 17.4529 40.3253C17.6231 40.1536 17.7569 39.9494 17.8465 39.7249L31.0489 9.72491ZM34.3033 33.2281C34.1158 33.0839 33.9587 32.9043 33.8407 32.6994C33.7228 32.4944 33.6463 32.2683 33.6158 32.0338C33.5853 31.7994 33.6012 31.5612 33.6628 31.3329C33.7243 31.1046 33.8302 30.8907 33.9745 30.7033L39.1297 24.0001L33.9745 17.2969C33.7048 16.9174 33.5927 16.4482 33.6617 15.9878C33.7306 15.5274 33.9753 15.1116 34.3442 14.8278C34.7132 14.5439 35.1778 14.414 35.6405 14.4654C36.1032 14.5168 36.528 14.7454 36.8257 15.1033L42.8257 22.9033C43.068 23.2181 43.1993 23.6041 43.1993 24.0013C43.1993 24.3985 43.068 24.7846 42.8257 25.0993L36.8257 32.8993C36.5346 33.2771 36.1054 33.5239 35.6325 33.5856C35.1595 33.6472 34.6815 33.5187 34.3033 33.2281ZM13.6969 14.7721C13.8846 14.9163 14.0421 15.0961 14.1603 15.3012C14.2784 15.5063 14.355 15.7328 14.3855 15.9675C14.416 16.2022 14.4 16.4407 14.3382 16.6692C14.2765 16.8978 14.1703 17.1119 14.0257 17.2993L8.87046 24.0001L14.0257 30.7033C14.177 30.8898 14.2894 31.1048 14.3564 31.3355C14.4234 31.5661 14.4435 31.8079 14.4156 32.0465C14.3876 32.285 14.3123 32.5156 14.1939 32.7246C14.0754 32.9336 13.9164 33.1168 13.7261 33.2633C13.5358 33.4099 13.3181 33.5169 13.0858 33.578C12.8535 33.6391 12.6113 33.6532 12.3735 33.6192C12.1358 33.5853 11.9072 33.5041 11.7012 33.3805C11.4953 33.2568 11.3162 33.0932 11.1745 32.8993L5.17446 25.0993C4.93216 24.7846 4.80078 24.3985 4.80078 24.0013C4.80078 23.6041 4.93216 23.2181 5.17446 22.9033L11.1745 15.1033C11.4656 14.7255 11.8947 14.4787 12.3676 14.417C12.8406 14.3554 13.3186 14.4816 13.6969 14.7721Z" fill="#04459F"/>
</svg>
