<svg width="34" height="34" viewBox="0 0 34 34" fill="none" xmlns="http://www.w3.org/2000/svg">
<g clip-path="url(#clip0_11_761)">
<path d="M7.4375 2.125C6.02854 2.125 4.67728 2.68471 3.681 3.681C2.68471 4.67728 2.125 6.02854 2.125 7.4375V22.3125C2.125 23.7215 2.68471 25.0727 3.681 26.069C4.67728 27.0653 6.02854 27.625 7.4375 27.625H13.7615C13.9952 26.8579 14.3629 26.1375 14.8453 25.5H7.4375C6.59212 25.5 5.78137 25.1642 5.1836 24.5664C4.58582 23.9686 4.25 23.1579 4.25 22.3125V10.625H25.5V14.756L25.7189 14.5371C26.2841 13.9719 26.9322 13.5384 27.625 13.243V7.4375C27.625 6.02854 27.0653 4.67728 26.069 3.681C25.0727 2.68471 23.7215 2.125 22.3125 2.125H7.4375ZM16.8853 23.3686L22.3061 17.9499C22.2805 17.7089 22.1733 17.484 22.0023 17.3124L17.7523 13.0624C17.553 12.8629 17.2827 12.7507 17.0008 12.7505C16.7188 12.7503 16.4483 12.8621 16.2488 13.0613C16.0493 13.2605 15.9371 13.5309 15.9369 13.8128C15.9367 14.0948 16.0485 14.3652 16.2477 14.5648L19.7476 18.0625L16.2477 21.5602C16.1058 21.702 16.0069 21.8809 15.9624 22.0765C15.9179 22.2721 15.9297 22.4763 15.9964 22.6654C16.0631 22.8546 16.1819 23.021 16.3392 23.1454C16.4965 23.2699 16.6858 23.3473 16.8853 23.3686ZM25.5 8.5H4.25V7.4375C4.25 6.59212 4.58582 5.78137 5.1836 5.1836C5.78137 4.58582 6.59212 4.25 7.4375 4.25H22.3125C23.1579 4.25 23.9686 4.58582 24.5664 5.1836C25.1642 5.78137 25.5 6.59212 25.5 7.4375V8.5ZM13.5023 13.0602C13.6012 13.1589 13.6797 13.2762 13.7333 13.4053C13.7868 13.5344 13.8144 13.6727 13.8144 13.8125C13.8144 13.9523 13.7868 14.0906 13.7333 14.2197C13.6797 14.3488 13.6012 14.4661 13.5023 14.5648L10.0024 18.0625L13.5023 21.5602C13.7018 21.7598 13.8138 22.0304 13.8138 22.3125C13.8138 22.5946 13.7018 22.8652 13.5023 23.0648C13.3027 23.2643 13.0321 23.3763 12.75 23.3763C12.4679 23.3763 12.1973 23.2643 11.9977 23.0648L7.74775 18.8148C7.6488 18.7161 7.5703 18.5988 7.51674 18.4697C7.46317 18.3406 7.4356 18.2023 7.4356 18.0625C7.4356 17.9227 7.46317 17.7844 7.51674 17.6553C7.5703 17.5262 7.6488 17.4089 7.74775 17.3102L11.9977 13.0602C12.0964 12.9613 12.2137 12.8828 12.3428 12.8292C12.4719 12.7757 12.6102 12.7481 12.75 12.7481C12.8898 12.7481 13.0281 12.7757 13.1572 12.8292C13.2863 12.8828 13.4036 12.9613 13.5023 13.0602ZM16.9575 26.3011L27.2213 16.0374C27.9669 15.2923 28.9779 14.874 30.032 14.8744C31.0861 14.8748 32.0968 15.2939 32.8419 16.0395C33.5869 16.7851 34.0053 17.7962 34.0049 18.8503C34.0045 19.9043 33.5854 20.9151 32.8398 21.6601L22.576 31.9218C21.9779 32.5197 21.2288 32.9442 20.4085 33.15L17.2253 33.9447C16.9087 34.0236 16.5772 34.0193 16.2628 33.9322C15.9485 33.8451 15.662 33.6781 15.4312 33.4476C15.2005 33.217 15.0332 32.9307 14.9458 32.6164C14.8584 32.3021 14.8538 31.9706 14.9324 31.654L15.7292 28.4707C15.9351 27.6505 16.3596 26.9014 16.9575 26.3033" fill="#0451BF"/>
</g>
<defs>
<clipPath id="clip0_11_761">
<rect width="34" height="34" fill="white"/>
</clipPath>
</defs>
</svg>
