<svg width="48" height="48" viewBox="0 0 48 48" fill="none" xmlns="http://www.w3.org/2000/svg">
<path d="M8.779 11.8704C9.08045 10.5439 9.82368 9.35927 10.8868 8.51067C11.95 7.66208 13.2699 7.19993 14.6302 7.20001H33.367C34.7273 7.19993 36.0472 7.66208 37.1104 8.51067C38.1735 9.35927 38.9168 10.5439 39.2182 11.8704L43.0366 28.6704C43.2363 29.549 43.2355 30.4612 43.0344 31.3394C42.8333 32.2176 42.437 33.0392 41.8749 33.7433C41.3128 34.4474 40.5994 35.0159 39.7876 35.4066C38.9757 35.7972 38.0863 36.0001 37.1854 36H21.5998V33.6H37.1854C37.7259 33.6001 38.2595 33.4785 38.7466 33.2441C39.2336 33.0098 39.6617 32.6688 39.999 32.2465C40.3363 31.8241 40.5741 31.3312 40.6949 30.8044C40.8156 30.2776 40.8162 29.7303 40.6966 29.2032L36.8806 12.4032C36.6997 11.6063 36.2531 10.8946 35.6141 10.3851C34.9751 9.87569 34.1818 9.59881 33.3646 9.60001H14.6302C13.8142 9.60045 13.0226 9.87807 12.3851 10.3874C11.7476 10.8967 11.302 11.6075 11.1214 12.4032L10.1206 16.8H8.3998C8.1454 16.8 7.895 16.816 7.6486 16.848L8.779 11.8704ZM21.4798 40.8H34.7998C35.1181 40.8 35.4233 40.6736 35.6483 40.4485C35.8734 40.2235 35.9998 39.9183 35.9998 39.6C35.9998 39.2818 35.8734 38.9765 35.6483 38.7515C35.4233 38.5264 35.1181 38.4 34.7998 38.4H21.5998V39.6C21.5998 40.0112 21.5598 40.4112 21.4798 40.8ZM11.9998 28.8C12.6363 28.8 13.2468 28.5472 13.6969 28.0971C14.1469 27.647 14.3998 27.0365 14.3998 26.4C14.3998 25.7635 14.1469 25.153 13.6969 24.703C13.2468 24.2529 12.6363 24 11.9998 24C11.3633 24 10.7528 24.2529 10.3027 24.703C9.85266 25.153 9.5998 25.7635 9.5998 26.4C9.5998 27.0365 9.85266 27.647 10.3027 28.0971C10.7528 28.5472 11.3633 28.8 11.9998 28.8ZM4.7998 22.8C4.7998 21.8452 5.17909 20.9296 5.85422 20.2544C6.52935 19.5793 7.44503 19.2 8.3998 19.2H15.5998C16.5546 19.2 17.4703 19.5793 18.1454 20.2544C18.8205 20.9296 19.1998 21.8452 19.1998 22.8V39.6C19.1998 40.5548 18.8205 41.4705 18.1454 42.1456C17.4703 42.8207 16.5546 43.2 15.5998 43.2H8.3998C7.44503 43.2 6.52935 42.8207 5.85422 42.1456C5.17909 41.4705 4.7998 40.5548 4.7998 39.6V22.8ZM8.3998 21.6C8.08155 21.6 7.77632 21.7264 7.55128 21.9515C7.32623 22.1765 7.1998 22.4818 7.1998 22.8V39.6C7.1998 39.9183 7.32623 40.2235 7.55128 40.4485C7.77632 40.6736 8.08155 40.8 8.3998 40.8H15.5998C15.9181 40.8 16.2233 40.6736 16.4483 40.4485C16.6734 40.2235 16.7998 39.9183 16.7998 39.6V22.8C16.7998 22.4818 16.6734 22.1765 16.4483 21.9515C16.2233 21.7264 15.9181 21.6 15.5998 21.6H8.3998Z" fill="#04459F"/>
</svg>
