<svg width="48" height="48" viewBox="0 0 48 48" fill="none" xmlns="http://www.w3.org/2000/svg">
<path d="M11 8.5C11 8.10218 11.158 7.72064 11.4393 7.43934C11.7206 7.15804 12.1022 7 12.5 7H24V16C24 17.0609 24.4214 18.0783 25.1716 18.8284C25.9217 19.5786 26.9391 20 28 20H37V39.5C37 39.8978 36.842 40.2794 36.5607 40.5607C36.2794 40.842 35.8978 41 35.5 41H26V44H35.5C36.091 44 36.6761 43.8836 37.2221 43.6575C37.768 43.4313 38.2641 43.0998 38.682 42.682C39.0998 42.2641 39.4313 41.768 39.6575 41.2221C39.8836 40.6761 40 40.091 40 39.5V19.328C40 18.4 39.632 17.51 38.974 16.854L27.146 5.026C26.49 4.36952 25.6001 4.00046 24.672 4H12.5C11.3065 4 10.1619 4.47411 9.31802 5.31802C8.47411 6.16193 8 7.30653 8 8.5V24.536C8.588 24.196 9.272 24 10 24H11V8.5ZM34.88 17H28C27.7348 17 27.4804 16.8946 27.2929 16.7071C27.1054 16.5196 27 16.2652 27 16V9.12L34.88 17ZM8 32V29C8 28.2044 8.31607 27.4413 8.87868 26.8787C9.44129 26.3161 10.2044 26 11 26H15C15.7956 26 16.5587 26.3161 17.1213 26.8787C17.6839 27.4413 18 28.2044 18 29V32H21C21.7956 32 22.5587 32.3161 23.1213 32.8787C23.6839 33.4413 24 34.2044 24 35V38H18V37C18 36.7348 17.8946 36.4804 17.7071 36.2929C17.5196 36.1054 17.2652 36 17 36C16.7348 36 16.4804 36.1054 16.2929 36.2929C16.1054 36.4804 16 36.7348 16 37V38H10V37C10 36.7348 9.89464 36.4804 9.70711 36.2929C9.51957 36.1054 9.26522 36 9 36C8.73478 36 8.48043 36.1054 8.29289 36.2929C8.10536 36.4804 8 36.7348 8 37V38H2V35C2 34.2044 2.31607 33.4413 2.87868 32.8787C3.44129 32.3161 4.20435 32 5 32H8ZM10 29V32H16V29C16 28.7348 15.8946 28.4804 15.7071 28.2929C15.5196 28.1054 15.2652 28 15 28H11C10.7348 28 10.4804 28.1054 10.2929 28.2929C10.1054 28.4804 10 28.7348 10 29ZM18 40H24V43C24 43.7957 23.6839 44.5587 23.1213 45.1213C22.5587 45.6839 21.7956 46 21 46H5C4.20435 46 3.44129 45.6839 2.87868 45.1213C2.31607 44.5587 2 43.7957 2 43V40H8V41C8 41.2652 8.10536 41.5196 8.29289 41.7071C8.48043 41.8946 8.73478 42 9 42C9.26522 42 9.51957 41.8946 9.70711 41.7071C9.89464 41.5196 10 41.2652 10 41V40H16V41C16 41.2652 16.1054 41.5196 16.2929 41.7071C16.4804 41.8946 16.7348 42 17 42C17.2652 42 17.5196 41.8946 17.7071 41.7071C17.8946 41.5196 18 41.2652 18 41V40Z" fill="#0451BF"/>
</svg>
