<svg width="48" height="48" viewBox="0 0 48 48" fill="none" xmlns="http://www.w3.org/2000/svg">
<path d="M8.00007 8C8.00007 6.93913 8.42149 5.92172 9.17164 5.17157C9.92179 4.42143 10.9392 4 12.0001 4H24.3441C25.4048 4.00023 26.4221 4.4218 27.1721 5.172L38.8281 16.828C39.5783 17.578 39.9998 18.5952 40.0001 19.656V40C40.0001 41.0609 39.5786 42.0783 38.8285 42.8284C38.0784 43.5786 37.0609 44 36.0001 44H27.9641C27.8571 43.252 27.5096 42.5591 26.9741 42.026L25.9501 41H36.0001C36.2653 41 36.5196 40.8946 36.7072 40.7071C36.8947 40.5196 37.0001 40.2652 37.0001 40V20H28.0001C26.9392 20 25.9218 19.5786 25.1716 18.8284C24.4215 18.0783 24.0001 17.0609 24.0001 16V7H12.0001C11.7349 7 11.4805 7.10536 11.293 7.29289C11.1054 7.48043 11.0001 7.73478 11.0001 8V22.18C9.95608 22.3734 8.9456 22.717 8.00007 23.2V8ZM28.0001 17H34.7601L27.0001 9.24V16C27.0001 16.2652 27.1054 16.5196 27.293 16.7071C27.4805 16.8946 27.7348 17 28.0001 17ZM13.0001 42C14.8687 42.0001 16.691 41.4185 18.2141 40.336L23.4401 45.56C23.5774 45.7074 23.743 45.8256 23.927 45.9076C24.111 45.9895 24.3096 46.0336 24.511 46.0372C24.7124 46.0407 24.9125 46.0037 25.0993 45.9282C25.286 45.8528 25.4557 45.7405 25.5981 45.5981C25.7406 45.4556 25.8529 45.286 25.9283 45.0992C26.0038 44.9124 26.0408 44.7124 26.0373 44.511C26.0337 44.3096 25.9896 44.1109 25.9076 43.9269C25.8256 43.7429 25.7074 43.5773 25.5601 43.44L20.3361 38.214C21.5049 36.5695 22.0873 34.58 21.9897 32.5648C21.8922 30.5496 21.1203 28.6256 19.7981 27.1018C18.4759 25.5779 16.68 24.5424 14.6987 24.1617C12.7174 23.781 10.6656 24.077 8.87274 25.0023C7.07987 25.9275 5.6499 27.4284 4.81237 29.2639C3.97483 31.0994 3.77832 33.1631 4.25439 35.1236C4.73045 37.0842 5.85146 38.828 7.43748 40.075C9.0235 41.322 10.9825 42 13.0001 42ZM13.0001 39C11.4088 39 9.88265 38.3679 8.75743 37.2426C7.63221 36.1174 7.00007 34.5913 7.00007 33C7.00007 31.4087 7.63221 29.8826 8.75743 28.7574C9.88265 27.6321 11.4088 27 13.0001 27C14.5914 27 16.1175 27.6321 17.2427 28.7574C18.3679 29.8826 19.0001 31.4087 19.0001 33C19.0001 34.5913 18.3679 36.1174 17.2427 37.2426C16.1175 38.3679 14.5914 39 13.0001 39Z" fill="#04459F"/>
</svg>
