<svg width="48" height="48" viewBox="0 0 48 48" fill="none" xmlns="http://www.w3.org/2000/svg">
<path d="M10.8 16.8001C10.4818 16.8001 10.1766 16.9265 9.95152 17.1516C9.72648 17.3766 9.60005 17.6818 9.60005 18.0001C9.60005 18.3184 9.72648 18.6236 9.95152 18.8486C10.1766 19.0737 10.4818 19.2001 10.8 19.2001H20.4C20.7183 19.2001 21.0235 19.0737 21.2486 18.8486C21.4736 18.6236 21.6 18.3184 21.6 18.0001C21.6 17.6818 21.4736 17.3766 21.2486 17.1516C21.0235 16.9265 20.7183 16.8001 20.4 16.8001H10.8ZM21.6 22.8001C21.6 22.4818 21.7265 22.1766 21.9515 21.9516C22.1766 21.7265 22.4818 21.6001 22.8 21.6001H32.4C32.7183 21.6001 33.0235 21.7265 33.2486 21.9516C33.4736 22.1766 33.6 22.4818 33.6 22.8001C33.6 23.1184 33.4736 23.4236 33.2486 23.6486C33.0235 23.8737 32.7183 24.0001 32.4 24.0001H22.8C22.4818 24.0001 22.1766 23.8737 21.9515 23.6486C21.7265 23.4236 21.6 23.1184 21.6 22.8001ZM30 26.4001C29.6818 26.4001 29.3766 26.5265 29.1515 26.7516C28.9265 26.9766 28.8 27.2818 28.8 27.6001C28.8 27.9184 28.9265 28.2236 29.1515 28.4486C29.3766 28.6737 29.6818 28.8001 30 28.8001H37.2001C37.5183 28.8001 37.8235 28.6737 38.0486 28.4486C38.2736 28.2236 38.4001 27.9184 38.4001 27.6001C38.4001 27.2818 38.2736 26.9766 38.0486 26.7516C37.8235 26.5265 37.5183 26.4001 37.2001 26.4001H30ZM10.8 9.6001C9.20875 9.6001 7.68263 10.2322 6.55741 11.3575C5.43219 12.4827 4.80005 14.0088 4.80005 15.6001V32.4001C4.80005 33.9914 5.43219 35.5175 6.55741 36.6427C7.68263 37.768 9.20875 38.4001 10.8 38.4001H37.2001C38.7913 38.4001 40.3175 37.768 41.4427 36.6427C42.5679 35.5175 43.2001 33.9914 43.2001 32.4001V15.6001C43.2001 14.0088 42.5679 12.4827 41.4427 11.3575C40.3175 10.2322 38.7913 9.6001 37.2001 9.6001H10.8ZM7.20005 15.6001C7.20005 14.6453 7.57933 13.7296 8.25446 13.0545C8.9296 12.3794 9.84527 12.0001 10.8 12.0001H16.8V14.4001H19.2V12.0001H28.8V19.2001H31.2001V12.0001H37.2001C38.1548 12.0001 39.0705 12.3794 39.7456 13.0545C40.4208 13.7296 40.8 14.6453 40.8 15.6001V32.4001C40.8 33.3549 40.4208 34.2706 39.7456 34.9457C39.0705 35.6208 38.1548 36.0001 37.2001 36.0001H31.2001V31.2001H28.8V36.0001H19.2V21.6001H16.8V36.0001H10.8C9.84527 36.0001 8.9296 35.6208 8.25446 34.9457C7.57933 34.2706 7.20005 33.3549 7.20005 32.4001V15.6001Z" fill="#04459F"/>
</svg>
