<svg width="48" height="48" viewBox="0 0 48 48" fill="none" xmlns="http://www.w3.org/2000/svg">
<path d="M24 43.2001C25.184 43.2001 26.3376 43.0961 27.4608 42.8881C26.7639 42.0955 26.1563 41.2286 25.6488 40.3033C25.0896 40.6393 24.5328 40.8001 24 40.8001C22.4232 40.8001 20.6232 39.3841 19.1472 36.2209C18.586 34.9905 18.1377 33.7116 17.808 32.4001H24V30.0001H17.2944C16.9624 28.0174 16.797 26.0104 16.8 24.0001C16.8 21.8809 16.9752 19.8601 17.2944 18.0001H30.7056C30.936 19.3465 31.092 20.7769 31.1616 22.2697C31.9074 21.7417 32.6039 21.1473 33.2424 20.4937C33.3032 20.4313 33.3656 20.3721 33.4296 20.3161C33.3544 19.5241 33.2568 18.7521 33.1368 18.0001H39.696C40.2 19.3201 40.5456 20.7169 40.7016 22.1713C41.4456 22.7089 42.2904 23.2009 43.1952 23.5393C43.1045 19.7626 41.9018 16.0966 39.7375 13.0003C37.5732 9.90395 34.5436 7.5149 31.0279 6.13225C27.5123 4.74959 23.6669 4.43478 19.9732 5.22723C16.2795 6.01968 12.9017 7.88416 10.2626 10.5872C7.62351 13.2903 5.8405 16.7119 5.13679 20.4235C4.43307 24.1351 4.83994 27.9719 6.30644 31.4534C7.77294 34.9349 10.2339 37.9064 13.3812 39.9958C16.5285 42.0853 20.2223 43.1999 24 43.2001ZM24 7.20005C25.5768 7.20005 27.3768 8.61606 28.8528 11.7793C29.3736 12.8977 29.8272 14.1841 30.1944 15.6001H17.8056C18.1728 14.1841 18.6264 12.8977 19.1496 11.7793C20.6208 8.61606 22.4208 7.20005 24 7.20005ZM16.9728 10.7641C16.2641 12.3164 15.7148 13.9367 15.3336 15.6001H9.4464C11.4722 12.0979 14.6907 9.44163 18.5136 8.11685C17.9352 8.90885 17.4192 9.80646 16.9728 10.7641ZM14.8608 18.0001C14.5505 19.9849 14.3964 21.9911 14.4 24.0001C14.4 26.0881 14.5608 28.1089 14.8632 30.0001H8.304C7.5729 28.0842 7.19873 26.0507 7.2 24.0001C7.2 21.8881 7.5912 19.8625 8.304 18.0001H14.8608ZM15.3336 32.4001C15.756 34.1833 16.3104 35.8129 16.9728 37.2361C17.4192 38.1937 17.9352 39.0913 18.5136 39.8833C14.6907 38.5585 11.4722 35.9022 9.4464 32.4001H15.3336ZM29.4864 8.11685C33.3093 9.44163 36.5278 12.0979 38.5536 15.6001H32.664C32.2827 13.9367 31.7335 12.3164 31.0248 10.7641C30.5979 9.83395 30.0819 8.94741 29.484 8.11685M44.4 26.3161C41.112 25.8529 38.4336 23.5945 37.0416 22.1737C36.7621 21.9018 36.3875 21.7498 35.9976 21.7498C35.6077 21.7498 35.2332 21.9018 34.9536 22.1737C33.5616 23.5945 30.8856 25.8529 27.5952 26.3161C26.9376 26.4073 26.3976 26.9377 26.3976 27.6001V33.6001C26.3976 41.9233 34.0344 44.9449 35.6856 45.5017C35.8878 45.5711 36.1074 45.5711 36.3096 45.5017C37.9632 44.9449 45.6 41.9257 45.6 33.6001V27.6001C45.6 26.9377 45.0576 26.4073 44.4 26.3161Z" fill="#04459F"/>
</svg>
