<svg width="28" height="28" viewBox="0 0 28 28" fill="none" xmlns="http://www.w3.org/2000/svg">
<path d="M14.0023 2.33203C20.4458 2.33203 25.6702 7.55637 25.6702 14.001C25.6702 20.4445 20.4458 25.6689 14.0023 25.6689C7.55768 25.6689 2.33334 20.4445 2.33334 14.001C2.33334 7.55637 7.55768 2.33203 14.0023 2.33203ZM14.0023 4.08203C12.6908 4.06781 11.3894 4.31385 10.1736 4.80592C8.95776 5.29798 7.8516 6.0263 6.91912 6.94873C5.98663 7.87115 5.24636 8.96935 4.74114 10.1798C4.23591 11.3902 3.97577 12.6888 3.97577 14.0004C3.97577 15.3121 4.23591 16.6107 4.74114 17.8211C5.24636 19.0315 5.98663 20.1297 6.91912 21.0522C7.8516 21.9746 8.95776 22.7029 10.1736 23.195C11.3894 23.687 12.6908 23.9331 14.0023 23.9189C16.6142 23.8905 19.1095 22.8331 20.9465 20.9761C22.7834 19.1191 23.8138 16.6125 23.8138 14.0004C23.8138 11.3884 22.7834 8.88178 20.9465 7.02479C19.1095 5.16781 16.6142 4.11036 14.0023 4.08203ZM14 12.2499C14.2321 12.2499 14.4546 12.3421 14.6187 12.5061C14.7828 12.6702 14.875 12.8928 14.875 13.1249V18.9582C14.875 19.1903 14.7828 19.4128 14.6187 19.5769C14.4546 19.741 14.2321 19.8332 14 19.8332C13.7679 19.8332 13.5454 19.741 13.3813 19.5769C13.2172 19.4128 13.125 19.1903 13.125 18.9582V13.1249C13.125 12.8928 13.2172 12.6702 13.3813 12.5061C13.5454 12.3421 13.7679 12.2499 14 12.2499ZM14 10.4999C14.3094 10.4999 14.6062 10.3769 14.825 10.1582C15.0438 9.93936 15.1667 9.64262 15.1667 9.3332C15.1667 9.02378 15.0438 8.72703 14.825 8.50824C14.6062 8.28945 14.3094 8.16653 14 8.16653C13.6906 8.16653 13.3938 8.28945 13.1751 8.50824C12.9563 8.72703 12.8333 9.02378 12.8333 9.3332C12.8333 9.64262 12.9563 9.93936 13.1751 10.1582C13.3938 10.3769 13.6906 10.4999 14 10.4999Z" fill="#0451BF"/>
</svg>
