<svg width="48" height="48" viewBox="0 0 48 48" fill="none" xmlns="http://www.w3.org/2000/svg">
<path d="M36.2878 23.9112C36.5396 23.6888 36.8639 23.5661 37.1998 23.5661C37.5357 23.5661 37.86 23.6888 38.1118 23.9112C39.331 25.0728 41.6734 26.9208 44.5534 27.3C45.127 27.3744 45.5998 27.8088 45.5998 28.3512V33.4152C45.5998 40.2288 38.9182 42.7032 37.4734 43.1592C37.2963 43.2163 37.1057 43.2163 36.9286 43.1592C35.4838 42.7032 28.7998 40.2312 28.7998 33.4152V28.3512C28.7998 27.8088 29.2726 27.3744 29.8486 27.3C32.7262 26.9208 35.0686 25.0728 36.2878 23.9112ZM26.6782 36C26.8702 36.8688 27.1534 37.668 27.5062 38.4H5.9998C5.68154 38.4 5.37632 38.2736 5.15128 38.0485C4.92623 37.8235 4.7998 37.5183 4.7998 37.2C4.7998 36.8817 4.92623 36.5765 5.15128 36.3515C5.37632 36.1264 5.68154 36 5.9998 36H26.6782ZM35.9998 12C37.2728 12 38.4937 12.5057 39.3939 13.4059C40.2941 14.3061 40.7998 15.527 40.7998 16.8V23.0544C40.6022 22.9027 40.4085 22.7458 40.219 22.584L39.7702 22.176L39.4942 21.936C39.1657 21.6806 38.7954 21.4841 38.3998 21.3552V16.8C38.3998 16.1635 38.1469 15.553 37.6969 15.1029C37.2468 14.6529 36.6363 14.4 35.9998 14.4H11.9998C11.3633 14.4 10.7528 14.6529 10.3027 15.1029C9.85266 15.553 9.5998 16.1635 9.5998 16.8V28.8C9.5998 29.4365 9.85266 30.047 10.3027 30.4971C10.7528 30.9471 11.3633 31.2 11.9998 31.2H26.3998V33.4176L26.407 33.6H11.9998C10.7268 33.6 9.50587 33.0943 8.60569 32.1941C7.70552 31.2939 7.1998 30.073 7.1998 28.8V16.8C7.1998 15.527 7.70552 14.3061 8.60569 13.4059C9.50587 12.5057 10.7268 12 11.9998 12H35.9998Z" fill="#04459F"/>
</svg>
