<svg width="34" height="34" viewBox="0 0 34 34" fill="none" xmlns="http://www.w3.org/2000/svg">
<path d="M4.27212 17.3009C4.90559 15.6216 5.86508 14.0842 7.09532 12.7773C8.32555 11.4704 9.80222 10.4199 11.4402 9.68623C13.0783 8.95254 14.8453 8.55022 16.6395 8.50244C18.4337 8.45466 20.2196 8.76235 21.8943 9.40781L22.8633 8.17701C22.9087 8.12261 22.954 8.07047 22.9993 8.02061C21.1004 7.21174 19.0574 6.79533 16.9934 6.79642C14.9293 6.79751 12.8868 7.21609 10.9887 8.02698C9.09061 8.83786 7.37614 10.0243 5.94843 11.5149C4.52072 13.0055 3.40926 14.7695 2.68092 16.7008C2.64152 16.8053 2.62308 16.9165 2.62666 17.0281C2.63024 17.1397 2.65576 17.2495 2.70178 17.3513C2.74779 17.453 2.8134 17.5447 2.89485 17.6211C2.97629 17.6975 3.07199 17.7571 3.17647 17.7965C3.28095 17.8359 3.39217 17.8543 3.50377 17.8507C3.61538 17.8471 3.72519 17.8216 3.82693 17.7756C3.92867 17.7296 4.02035 17.664 4.09673 17.5825C4.17312 17.5011 4.23272 17.4054 4.27212 17.3009ZM27.2272 10.7202C29.0508 12.3566 30.4547 14.4071 31.3208 16.6991C31.4006 16.9101 31.3933 17.1442 31.3006 17.3498C31.2078 17.5554 31.0371 17.7158 30.8261 17.7956C30.6151 17.8754 30.381 17.8681 30.1754 17.7754C29.9698 17.6826 29.8094 17.5119 29.7296 17.3009C29.0353 15.4623 27.9507 13.796 26.5506 12.4168L26.9994 11.2914L27.2272 10.7202ZM17.0017 11.05C18.0944 11.0489 19.1812 11.2099 20.2266 11.5277L19.0859 12.9829C16.7121 12.4408 14.2205 12.8455 12.1404 14.1111C10.0602 15.3767 8.55548 17.4035 7.94582 19.7608C7.91803 19.869 7.8692 19.9706 7.80213 20.0599C7.73506 20.1492 7.65106 20.2244 7.55492 20.2812C7.45878 20.3381 7.35239 20.3754 7.24183 20.3911C7.13126 20.4068 7.01868 20.4006 6.91052 20.3728C6.80236 20.345 6.70073 20.2962 6.61143 20.2291C6.52214 20.162 6.44693 20.078 6.3901 19.9819C6.33327 19.8858 6.29594 19.7794 6.28022 19.6688C6.26451 19.5583 6.27073 19.4457 6.29852 19.3375C6.91113 16.9649 8.29502 14.8632 10.2325 13.363C12.1701 11.8627 14.5513 11.0491 17.0017 11.05ZM25.5017 15.0382L24.7605 16.881C25.3453 17.748 25.7873 18.7204 26.0559 19.7625C26.1123 19.981 26.2531 20.1681 26.4474 20.2827C26.6417 20.3973 26.8736 20.43 27.0921 20.3737C27.3105 20.3173 27.4976 20.1765 27.6122 19.9822C27.7269 19.7878 27.7596 19.556 27.7032 19.3375C27.2949 17.7594 26.5425 16.2913 25.5 15.0382M17 15.3L17.272 15.3051C16.7824 15.9307 16.3047 16.5461 15.8559 17.1292C14.7315 17.3881 13.728 18.0206 13.0095 18.9234C12.291 19.8263 11.8998 20.9461 11.9 22.1C11.9 22.3254 11.8105 22.5416 11.6511 22.701C11.4917 22.8605 11.2755 22.95 11.05 22.95C10.8246 22.95 10.6084 22.8605 10.449 22.701C10.2896 22.5416 10.2 22.3254 10.2 22.1C10.2 20.2965 10.9164 18.5669 12.1917 17.2917C13.4669 16.0164 15.1965 15.3 17 15.3ZM22.3856 22.6967L22.3737 22.7256C22.4952 22.8377 22.6467 22.9119 22.8097 22.9391C22.9727 22.9664 23.1401 22.9456 23.2914 22.8792C23.4428 22.8128 23.5715 22.7038 23.6618 22.5654C23.7522 22.427 23.8002 22.2653 23.8 22.1C23.8 21.3792 23.6895 20.6856 23.4821 20.0345C23.0911 20.9916 22.7154 21.9011 22.3856 22.6967ZM22.7647 11.0517L23.8051 9.72911L24.1995 9.23101L24.2624 9.15961C24.3829 9.03787 24.5374 8.95538 24.7055 8.92293C24.8737 8.89049 25.0478 8.90961 25.2049 8.97779C25.362 9.04597 25.4949 9.16002 25.5861 9.30501C25.6773 9.45 25.7225 9.61916 25.7159 9.79031L25.6547 10.0725L25.4201 10.6624C24.5714 12.7888 23.7191 14.9138 22.8633 17.0374C22.1894 18.7094 21.5077 20.3783 20.8182 22.0439C20.5207 22.7579 20.2572 23.3801 20.0515 23.8578C19.9084 24.2001 19.7513 24.5364 19.5806 24.8659C19.1802 25.5379 18.5314 26.0253 17.7745 26.2226C17.0175 26.42 16.2133 26.3115 15.5358 25.9205C14.8583 25.5296 14.3618 24.8877 14.1539 24.1336C13.9459 23.3795 14.0431 22.5739 14.4245 21.8909C14.5265 21.7107 14.7679 21.3758 15.062 20.9763C15.3731 20.5581 15.7794 20.0209 16.2503 19.4072C17.1904 18.1781 18.3872 16.6379 19.5636 15.1317C20.74 13.6255 21.8994 12.1499 22.7647 11.0517ZM25.7159 9.79031C25.7118 9.88718 25.6911 9.98262 25.6547 10.0725L25.7159 9.79031Z" fill="#0451BF"/>
</svg>
