<svg width="48" height="48" viewBox="0 0 48 48" fill="none" xmlns="http://www.w3.org/2000/svg">
<path d="M15.816 16.7808C16.1111 16.7274 16.3755 16.5654 16.5571 16.3268C16.7387 16.0882 16.8244 15.7902 16.7973 15.4916C16.7703 15.1929 16.6323 14.9153 16.4107 14.7132C16.1891 14.5112 15.8999 14.3995 15.6 14.4H10.8L10.584 14.4192C10.289 14.4726 10.0246 14.6346 9.84298 14.8732C9.66136 15.1118 9.57565 15.4098 9.60275 15.7084C9.62984 16.0071 9.76777 16.2848 9.98937 16.4868C10.211 16.6888 10.5002 16.8006 10.8 16.8H15.6L15.816 16.7808ZM15.816 23.9808C16.1111 23.9274 16.3755 23.7654 16.5571 23.5268C16.7387 23.2882 16.8244 22.9902 16.7973 22.6916C16.7703 22.3929 16.6323 22.1153 16.4107 21.9132C16.1891 21.7112 15.8999 21.5995 15.6 21.6H10.8L10.584 21.6192C10.289 21.6726 10.0246 21.8346 9.84298 22.0732C9.66136 22.3118 9.57565 22.6098 9.60275 22.9084C9.62984 23.2071 9.76777 23.4848 9.98937 23.6868C10.211 23.8888 10.5002 24.0006 10.8 24H15.6L15.816 23.9808ZM16.8 30C16.8001 30.2809 16.7017 30.5529 16.5219 30.7686C16.3421 30.9844 16.0923 31.1303 15.816 31.1808L15.6 31.2H10.8C10.5002 31.2006 10.211 31.0888 9.98937 30.8868C9.76777 30.6848 9.62984 30.4071 9.60275 30.1084C9.57565 29.8098 9.66136 29.5118 9.84298 29.2732C10.0246 29.0346 10.289 28.8726 10.584 28.8192L10.8 28.8H15.6C15.9183 28.8 16.2235 28.9264 16.4486 29.1515C16.6736 29.3765 16.8 29.6818 16.8 30ZM12 7.20001C10.0905 7.20001 8.25914 7.95858 6.90888 9.30884C5.55862 10.6591 4.80005 12.4905 4.80005 14.4V31.2C4.80005 33.1096 5.55862 34.9409 6.90888 36.2912C8.25914 37.6414 10.0905 38.4 12 38.4H22.0968C21.875 37.6154 21.7264 36.812 21.6529 36H21.6V9.60001H36C37.2731 9.60001 38.494 10.1057 39.3942 11.0059C40.2943 11.9061 40.8 13.127 40.8 14.4V23.04C41.6609 23.4816 42.4608 24.0072 43.2001 24.6168V14.4C43.2001 12.4905 42.4415 10.6591 41.0912 9.30884C39.741 7.95858 37.9096 7.20001 36 7.20001H12ZM12 9.60001H19.2V36H12C10.727 36 9.50611 35.4943 8.60594 34.5941C7.70576 33.694 7.20005 32.4731 7.20005 31.2V14.4C7.20005 13.127 7.70576 11.9061 8.60594 11.0059C9.50611 10.1057 10.727 9.60001 12 9.60001ZM45.6001 34.8C45.6001 37.6644 44.4622 40.4114 42.4368 42.4368C40.4114 44.4622 37.6644 45.6 34.8001 45.6C31.9357 45.6 29.1887 44.4622 27.1633 42.4368C25.1379 40.4114 24 37.6644 24 34.8C24 31.9357 25.1379 29.1887 27.1633 27.1633C29.1887 25.1379 31.9357 24 34.8001 24C37.6644 24 40.4114 25.1379 42.4368 27.1633C44.4622 29.1887 45.6001 31.9357 45.6001 34.8ZM36.4968 34.8L39.2496 32.0496C39.475 31.8243 39.6016 31.5187 39.6016 31.2C39.6016 30.8814 39.475 30.5757 39.2496 30.3504C39.0243 30.1251 38.7187 29.9985 38.4001 29.9985C38.0814 29.9985 37.7758 30.1251 37.5504 30.3504L34.8001 33.1032L32.0497 30.3504C31.8243 30.1251 31.5187 29.9985 31.2001 29.9985C30.8814 29.9985 30.5758 30.1251 30.3505 30.3504C30.1251 30.5757 29.9985 30.8814 29.9985 31.2C29.9985 31.5187 30.1251 31.8243 30.3505 32.0496L33.1033 34.8L30.3505 37.5504C30.2389 37.662 30.1504 37.7944 30.09 37.9402C30.0296 38.086 29.9985 38.2422 29.9985 38.4C29.9985 38.5578 30.0296 38.714 30.09 38.8598C30.1504 39.0056 30.2389 39.138 30.3505 39.2496C30.462 39.3612 30.5945 39.4497 30.7402 39.5101C30.886 39.5704 31.0423 39.6015 31.2001 39.6015C31.3578 39.6015 31.5141 39.5704 31.6599 39.5101C31.8056 39.4497 31.9381 39.3612 32.0497 39.2496L34.8001 36.4968L37.5504 39.2496C37.662 39.3612 37.7945 39.4497 37.9403 39.5101C38.086 39.5704 38.2423 39.6015 38.4001 39.6015C38.5578 39.6015 38.7141 39.5704 38.8599 39.5101C39.0056 39.4497 39.1381 39.3612 39.2496 39.2496C39.3612 39.138 39.4497 39.0056 39.5101 38.8598C39.5705 38.714 39.6016 38.5578 39.6016 38.4C39.6016 38.2422 39.5705 38.086 39.5101 37.9402C39.4497 37.7944 39.3612 37.662 39.2496 37.5504L36.4968 34.8Z" fill="#04459F"/>
</svg>
