<svg width="48" height="48" viewBox="0 0 48 48" fill="none" xmlns="http://www.w3.org/2000/svg">
<path d="M36 27.4286C37.364 27.4286 38.6721 27.9704 39.6366 28.9349C40.601 29.8994 41.1429 31.2075 41.1429 32.5714V33.7972C41.1429 39.9292 33.9257 44.5714 24 44.5714C14.0743 44.5714 6.85715 40.1709 6.85715 33.7972V32.5714C6.85715 31.2075 7.39898 29.8994 8.36346 28.9349C9.32793 27.9704 10.636 27.4286 12 27.4286H36ZM36 30H12C11.361 30 10.745 30.2379 10.2718 30.6673C9.79867 31.0967 9.50234 31.6869 9.44058 32.3229L9.42858 32.5714V33.7972C9.42858 38.3812 15.2383 42 24 42C32.4446 42 38.3229 38.3914 38.5646 34.0732L38.5714 33.7972V32.5714C38.5714 31.9325 38.3336 31.3164 37.9041 30.8433C37.4747 30.3701 36.8845 30.0738 36.2486 30.012L36 30ZM24 3.42859C25.3507 3.42859 26.6883 3.69464 27.9362 4.21154C29.1841 4.72845 30.318 5.48609 31.2731 6.4412C32.2282 7.39632 32.9859 8.53021 33.5028 9.77813C34.0197 11.0261 34.2857 12.3636 34.2857 13.7143C34.2857 15.065 34.0197 16.4026 33.5028 17.6505C32.9859 18.8984 32.2282 20.0323 31.2731 20.9874C30.318 21.9425 29.1841 22.7002 27.9362 23.2171C26.6883 23.734 25.3507 24 24 24C21.2721 24 18.6559 22.9163 16.7269 20.9874C14.798 19.0585 13.7143 16.4422 13.7143 13.7143C13.7143 10.9864 14.798 8.37015 16.7269 6.4412C18.6559 4.51226 21.2721 3.42859 24 3.42859ZM24 6.00002C21.954 6.00002 19.9919 6.81277 18.5452 8.25948C17.0985 9.70619 16.2857 11.6683 16.2857 13.7143C16.2857 15.7603 17.0985 17.7224 18.5452 19.1691C19.9919 20.6158 21.954 21.4286 24 21.4286C26.046 21.4286 28.0081 20.6158 29.4548 19.1691C30.9015 17.7224 31.7143 15.7603 31.7143 13.7143C31.7143 11.6683 30.9015 9.70619 29.4548 8.25948C28.0081 6.81277 26.046 6.00002 24 6.00002Z" fill="#04459F"/>
</svg>
