<svg width="48" height="48" viewBox="0 0 48 48" fill="none" xmlns="http://www.w3.org/2000/svg">
<path d="M24 32.5713C23.3289 32.5716 22.6724 32.3749 22.112 32.0055C21.5516 31.6362 21.1119 31.1105 20.8475 30.4936C20.2943 30.363 19.7499 30.1981 19.2172 29.9999L19.188 29.9896C17.6239 29.4025 16.1802 28.5346 14.928 27.4285C13.2504 25.9486 11.9603 24.0807 11.1702 21.9878C10.38 19.8949 10.1139 17.6405 10.3949 15.4211C10.6759 13.2018 11.4956 11.0848 12.7825 9.25494C14.0694 7.42504 15.7843 5.93772 17.7779 4.92267C19.7714 3.90763 21.983 3.39567 24.2198 3.43144C26.4566 3.46721 28.6507 4.04962 30.6108 5.1279C32.5709 6.20617 34.2374 7.74756 35.4651 9.61767C36.6928 11.4878 37.4444 13.6298 37.6543 15.8571C37.7212 16.5651 37.14 17.1428 36.4286 17.1428C35.7189 17.1428 35.1515 16.5651 35.0692 15.8588C34.8426 13.9101 34.1055 12.0558 32.9325 10.4834C31.7595 8.91092 30.1921 7.67601 28.3889 6.90348C26.5856 6.13095 24.6103 5.84819 22.6628 6.08378C20.7152 6.31938 18.8643 7.06497 17.2973 8.2452C15.7302 9.42543 14.5025 10.9984 13.7383 12.8053C12.9741 14.6121 12.7004 16.5886 12.945 18.5351C13.1895 20.4816 13.9436 22.329 15.1311 23.8906C16.3185 25.4522 17.8972 26.6726 19.7075 27.4285L19.776 27.4576C20.1189 27.5982 20.4709 27.7222 20.832 27.8296C21.1623 27.025 21.786 26.3759 22.5768 26.0139C23.3677 25.6519 24.2666 25.604 25.0914 25.8799C25.9163 26.1558 26.6054 26.7349 27.0193 27.4998C27.4332 28.2648 27.5409 29.1585 27.3206 29.9999C27.1305 30.736 26.7012 31.3881 26.1001 31.8536C25.499 32.319 24.7603 32.5715 24 32.5713ZM12 29.9999H14.004C13.0456 29.2529 12.1728 28.402 11.4017 27.4628C10.1498 27.6094 8.99536 28.2107 8.15757 29.1525C7.31978 30.0942 6.85702 31.3109 6.85718 32.5713V33.7971C6.85718 40.1708 14.0743 44.5713 24 44.5713C33.9257 44.5713 41.1429 39.9291 41.1429 33.7971V32.5713C41.1429 31.2074 40.6011 29.8993 39.6366 28.9348C38.6721 27.9703 37.364 27.4285 36 27.4285H29.7515C29.9999 28.2618 30.0643 29.1392 29.94 29.9999H36L36.2486 30.0119C36.8846 30.0737 37.4748 30.37 37.9042 30.8432C38.3336 31.3163 38.5715 31.9324 38.5715 32.5713V33.7971L38.5629 34.0731C38.3229 38.3931 32.4446 41.9999 24 41.9999C15.2383 41.9999 9.42861 38.3811 9.42861 33.7971V32.5713L9.44061 32.3228C9.50237 31.6868 9.7987 31.0966 10.2719 30.6672C10.745 30.2378 11.3611 29.9999 12 29.9999ZM32.5715 17.1428C32.5717 18.6955 32.1502 20.2192 31.3519 21.551C30.5536 22.8829 29.4085 23.9728 28.0389 24.7045C26.9339 23.6993 25.4938 23.1424 24 23.1428C24.788 23.1428 25.5682 22.9876 26.2961 22.686C27.0241 22.3845 27.6855 21.9426 28.2427 21.3854C28.7998 20.8283 29.2418 20.1668 29.5433 19.4389C29.8448 18.7109 30 17.9307 30 17.1428C30 16.3548 29.8448 15.5746 29.5433 14.8467C29.2418 14.1187 28.7998 13.4573 28.2427 12.9001C27.6855 12.343 27.0241 11.901 26.2961 11.5995C25.5682 11.298 24.788 11.1428 24 11.1428C22.4087 11.1428 20.8826 11.7749 19.7574 12.9001C18.6322 14.0253 18 15.5515 18 17.1428C18 18.7341 18.6322 20.2602 19.7574 21.3854C20.8826 22.5106 22.4087 23.1428 24 23.1428C22.4435 23.1428 21.0275 23.7359 19.9629 24.7062C18.594 23.9751 17.4493 22.8861 16.6509 21.5553C15.9711 20.4228 15.5623 19.1486 15.4563 17.832C15.3502 16.5154 15.5499 15.1921 16.0398 13.9654C16.5296 12.7388 17.2963 11.6419 18.28 10.7604C19.2637 9.87899 20.4378 9.2368 21.7107 8.88401C22.9835 8.53122 24.3207 8.47738 25.6178 8.72668C26.9149 8.97598 28.1369 9.52168 29.1883 10.3212C30.2397 11.1207 31.0921 12.1524 31.6789 13.3357C32.2658 14.519 32.5713 15.8219 32.5715 17.1428Z" fill="#04459F"/>
</svg>
