<svg width="48" height="48" viewBox="0 0 48 48" fill="none" xmlns="http://www.w3.org/2000/svg">
<path d="M46.062 1.93802C45.7807 1.65681 45.3993 1.49884 45.0015 1.49884C44.6038 1.49884 44.2223 1.65681 43.941 1.93802L37.731 8.14802C33.621 5.15102 27.621 5.61902 23.811 9.43202L23.421 9.82502C23.0727 10.1733 22.7964 10.5867 22.6079 11.0417C22.4194 11.4968 22.3223 11.9845 22.3223 12.477C22.3223 12.9696 22.4194 13.4573 22.6079 13.9123C22.7964 14.3673 23.0727 14.7808 23.421 15.129L32.964 24.675C33.693 25.407 34.653 25.773 35.616 25.773C36.579 25.773 37.539 25.407 38.268 24.675L38.928 24.015C39.9267 23.0238 40.7141 21.8405 41.2426 20.5365C41.7712 19.2325 42.0298 17.8348 42.003 16.428C41.9765 14.1934 41.2295 12.027 39.873 10.251L46.062 4.06202C46.2017 3.92268 46.3125 3.75716 46.3882 3.57492C46.4638 3.39269 46.5027 3.19732 46.5027 3.00002C46.5027 2.80272 46.4638 2.60735 46.3882 2.42512C46.3125 2.24288 46.2017 2.07736 46.062 1.93802ZM36.804 21.891L36.144 22.551C36.0744 22.6209 35.9916 22.6763 35.9005 22.7141C35.8094 22.7519 35.7117 22.7714 35.613 22.7714C35.5144 22.7714 35.4167 22.7519 35.3256 22.7141C35.2345 22.6763 35.1517 22.6209 35.082 22.551L25.536 13.005C25.4662 12.9354 25.4108 12.8526 25.373 12.7615C25.3352 12.6704 25.3157 12.5727 25.3157 12.474C25.3157 12.3754 25.3352 12.2777 25.373 12.1866C25.4108 12.0955 25.4662 12.0127 25.536 11.943L25.929 11.55C27.4395 10.0408 29.4848 9.18904 31.62 9.18002C33.45 9.18002 35.253 9.82202 36.633 11.124C38.127 12.528 38.964 14.427 38.997 16.473C39.0166 17.4772 38.8326 18.4749 38.4563 19.406C38.0799 20.3372 37.5189 21.1825 36.807 21.891M24.438 27.438L21.798 30.078L17.919 26.199L20.559 23.559C20.8323 23.2761 20.9835 22.8972 20.98 22.5039C20.9766 22.1106 20.8189 21.7344 20.5408 21.4563C20.2626 21.1782 19.8864 21.0204 19.4931 21.017C19.0998 21.0136 18.7209 21.1648 18.438 21.438L15.798 24.078L15.039 23.319C14.3342 22.6181 13.3804 22.225 12.3864 22.2255C11.3924 22.2261 10.4391 22.6203 9.73503 23.322L9.07503 23.982C8.07634 24.9732 7.28895 26.1565 6.76043 27.4606C6.23191 28.7646 5.97324 30.1622 6.00003 31.569C6.03603 33.837 6.78003 35.979 8.13003 37.746L1.94103 43.935C1.65977 44.2167 1.50192 44.5985 1.5022 44.9966C1.50248 45.3946 1.66087 45.7763 1.94253 46.0575C2.22419 46.3388 2.60605 46.4966 3.00409 46.4964C3.40214 46.4961 3.78377 46.3377 4.06503 46.056L10.275 39.846C12.0526 41.1283 14.1913 41.8132 16.383 41.802C19.197 41.802 22.047 40.713 24.195 38.562L24.588 38.169C24.9364 37.8208 25.2127 37.4073 25.4012 36.9523C25.5897 36.4973 25.6867 36.0096 25.6867 35.517C25.6867 35.0245 25.5897 34.5368 25.4012 34.0817C25.2127 33.6267 24.9364 33.2133 24.588 32.865L23.922 32.199L26.562 29.559C26.8353 29.2761 26.9865 28.8972 26.983 28.5039C26.9796 28.1106 26.8219 27.7344 26.5438 27.4563C26.2656 27.1782 25.8894 27.0204 25.4961 27.017C25.1028 27.0136 24.7239 27.1648 24.441 27.438M22.47 36.054L22.074 36.447C19.092 39.432 14.286 39.624 11.37 36.873C10.6351 36.1873 10.0467 35.3599 9.64044 34.4405C9.23413 33.5212 9.01832 32.5291 9.00603 31.524C8.97603 29.478 9.75603 27.552 11.202 26.106L11.862 25.446C11.9318 25.3764 12.0146 25.3213 12.1057 25.2837C12.1968 25.2461 12.2945 25.2268 12.393 25.227C12.588 25.227 12.777 25.299 12.924 25.446L22.464 34.986C22.5339 35.0557 22.5893 35.1385 22.6271 35.2296C22.6649 35.3207 22.6844 35.4184 22.6844 35.517C22.6844 35.6157 22.6649 35.7134 22.6271 35.8045C22.5893 35.8956 22.5339 35.9784 22.464 36.048L22.47 36.054Z" fill="#0451BF"/>
</svg>
