<svg width="48" height="48" viewBox="0 0 48 48" fill="none" xmlns="http://www.w3.org/2000/svg">
<path d="M42.8497 6.84946C43.075 6.62413 43.2016 6.31852 43.2016 5.99986C43.2016 5.68119 43.075 5.37558 42.8497 5.15026C42.6244 4.92493 42.3188 4.79834 42.0001 4.79834C41.6814 4.79834 41.3758 4.92493 41.1505 5.15026L34.7473 11.5559C32.8839 10.1059 30.5551 9.38651 28.1987 9.53279C25.8422 9.67908 23.6202 10.681 21.9505 12.3503L21.2305 13.0703C20.8981 13.4024 20.6345 13.7967 20.4546 14.2307C20.2747 14.6648 20.1821 15.13 20.1821 15.5999C20.1821 16.0697 20.2747 16.5349 20.4546 16.969C20.6345 17.403 20.8981 17.7974 21.2305 18.1295L27.1465 24.0431C27.8201 23.5631 28.5361 23.1487 29.2945 22.7999L22.9273 16.4303C22.7075 16.2098 22.584 15.9112 22.584 15.5999C22.584 15.2885 22.7075 14.9899 22.9273 14.7695L23.6473 14.0495C24.8157 12.8801 26.3469 12.1428 27.9896 11.9586C29.6323 11.7743 31.2888 12.1541 32.6871 13.0355C34.0855 13.917 35.1426 15.2477 35.6849 16.8092C36.2272 18.3707 36.2224 20.0702 35.6713 21.6287C36.4937 21.6831 37.2937 21.8095 38.0713 22.0079C38.5193 20.5247 38.6054 18.9557 38.3223 17.4324C38.0392 15.9091 37.3951 14.4758 36.4441 13.2527L42.8497 6.84946ZM18.1297 21.2303L24.0433 27.1463C23.5633 27.8199 23.1489 28.5359 22.8001 29.2943L16.4329 22.9295C16.3237 22.8202 16.194 22.7336 16.0514 22.6745C15.9087 22.6154 15.7557 22.585 15.6013 22.585C15.4469 22.585 15.2939 22.6154 15.1512 22.6745C15.0086 22.7336 14.8789 22.8202 14.7697 22.9295L14.0497 23.6495C12.8792 24.8173 12.1408 26.3486 11.956 27.9917C11.7711 29.6349 12.1508 31.292 13.0327 32.6907C13.9145 34.0894 15.246 35.1464 16.8082 35.6881C18.3705 36.2297 20.0705 36.2237 21.6289 35.6711C21.6833 36.4951 21.8097 37.2951 22.0081 38.0711C20.5249 38.5191 18.9559 38.6051 17.4326 38.322C15.9093 38.0389 14.4761 37.3949 13.2529 36.4439L6.8497 42.8495C6.62437 43.0748 6.31876 43.2014 6.0001 43.2014C5.68144 43.2014 5.37583 43.0748 5.1505 42.8495C4.92517 42.6241 4.79858 42.3185 4.79858 41.9999C4.79858 41.6812 4.92517 41.3756 5.1505 41.1503L11.5561 34.7471C10.1065 32.8834 9.38747 30.5544 9.5342 28.198C9.68093 25.8415 10.6833 23.6197 12.3529 21.9503L13.0729 21.2303C13.7435 20.5598 14.653 20.1831 15.6013 20.1831C16.5496 20.1831 17.4591 20.5598 18.1297 21.2303ZM45.6001 34.7999C45.6001 37.6642 44.4622 40.4112 42.4369 42.4366C40.4115 44.462 37.6644 45.5999 34.8001 45.5999C31.9358 45.5999 29.1887 44.462 27.1633 42.4366C25.138 40.4112 24.0001 37.6642 24.0001 34.7999C24.0001 31.9355 25.138 29.1885 27.1633 27.1631C29.1887 25.1377 31.9358 23.9999 34.8001 23.9999C37.6644 23.9999 40.4115 25.1377 42.4369 27.1631C44.4622 29.1885 45.6001 31.9355 45.6001 34.7999ZM40.4497 30.3503C40.3382 30.2385 40.2058 30.1498 40.06 30.0893C39.9142 30.0289 39.7579 29.9977 39.6001 29.9977C39.4423 29.9977 39.286 30.0289 39.1402 30.0893C38.9944 30.1498 38.862 30.2385 38.7505 30.3503L32.4001 36.7031L30.8497 35.1503C30.6244 34.9249 30.3188 34.7983 30.0001 34.7983C29.6814 34.7983 29.3758 34.9249 29.1505 35.1503C28.9252 35.3756 28.7986 35.6812 28.7986 35.9999C28.7986 36.3185 28.9252 36.6241 29.1505 36.8495L31.5505 39.2495C31.662 39.3612 31.7944 39.4499 31.9402 39.5104C32.086 39.5709 32.2423 39.602 32.4001 39.602C32.5579 39.602 32.7142 39.5709 32.86 39.5104C33.0058 39.4499 33.1382 39.3612 33.2497 39.2495L40.4497 32.0495C40.5615 31.938 40.6501 31.8056 40.7106 31.6598C40.7711 31.514 40.8022 31.3577 40.8022 31.1999C40.8022 31.042 40.7711 30.8857 40.7106 30.7399C40.6501 30.5941 40.5615 30.4617 40.4497 30.3503Z" fill="#04459F"/>
</svg>
