<svg width="48" height="48" viewBox="0 0 48 48" fill="none" xmlns="http://www.w3.org/2000/svg">
<path d="M29.1428 18.8572H39.4285V36.4287C39.4285 38.1336 38.7512 39.7687 37.5457 40.9743C36.3401 42.1799 34.7049 42.8572 33 42.8572H11.5714C9.86643 42.8572 8.2313 42.1799 7.02571 40.9743C5.82012 39.7687 5.14282 38.1336 5.14282 36.4287V15.0001C5.14282 13.2951 5.82012 11.66 7.02571 10.4544C8.2313 9.2488 9.86643 8.57151 11.5714 8.57151H29.1428V18.8572ZM7.71425 36.4287C7.71425 37.4516 8.12063 38.4327 8.84398 39.1561C9.56734 39.8794 10.5484 40.2858 11.5714 40.2858H15.4285V32.5715H7.71425V36.4287ZM18 40.2858H26.5714V32.5715H18V40.2858ZM29.1428 40.2858H33C34.0229 40.2858 35.004 39.8794 35.7274 39.1561C36.4507 38.4327 36.8571 37.4516 36.8571 36.4287V32.5715H29.1428V40.2858ZM7.71425 30.0001H15.4285V21.4287H7.71425V30.0001ZM18 30.0001H26.5714V21.4287H18V30.0001ZM29.1428 30.0001H36.8571V21.4287H29.1428V30.0001ZM11.5714 11.1429C10.5484 11.1429 9.56734 11.5493 8.84398 12.2727C8.12063 12.996 7.71425 13.9771 7.71425 15.0001V18.8572H15.4285V11.1429H11.5714ZM18 18.8572H26.5714V11.1429H18V18.8572ZM37.9114 1.91494C38.1104 1.71589 38.3466 1.558 38.6067 1.45028C38.8667 1.34255 39.1454 1.28711 39.4268 1.28711C39.7083 1.28711 39.987 1.34255 40.247 1.45028C40.507 1.558 40.7433 1.71589 40.9422 1.91494L46.0834 7.05437C46.2824 7.25336 46.4403 7.48961 46.5481 7.74963C46.6558 8.00965 46.7112 8.28834 46.7112 8.5698C46.7112 8.85125 46.6558 9.12994 46.5481 9.38996C46.4403 9.64998 46.2824 9.88623 46.0834 10.0852L40.9405 15.2264C40.5387 15.6278 39.994 15.8533 39.426 15.8533C38.858 15.8533 38.3132 15.6278 37.9114 15.2264L32.7703 10.0869C32.5712 9.88795 32.4133 9.6517 32.3056 9.39168C32.1979 9.13166 32.1424 8.85296 32.1424 8.57151C32.1424 8.29006 32.1979 8.01136 32.3056 7.75134C32.4133 7.49132 32.5712 7.25507 32.7703 7.05608L37.9114 1.91494ZM34.8925 8.57151L39.4268 13.1075L43.9628 8.57151L39.4268 4.03894L34.8925 8.57151Z" fill="#04459F"/>
</svg>
