<svg width="48" height="48" viewBox="0 0 48 48" fill="none" xmlns="http://www.w3.org/2000/svg">
<path d="M25.812 15.4224C26.7117 14.5233 27.9317 14.0184 29.2037 14.0189C30.4756 14.0193 31.6953 14.525 32.5944 15.4248C33.4934 16.3245 33.9983 17.5445 33.9978 18.8165C33.9974 20.0884 33.4917 21.3081 32.592 22.2072C32.1465 22.6524 31.6176 23.0054 31.0357 23.2462C30.4538 23.487 29.8301 23.6109 29.2003 23.6107C27.9283 23.6102 26.7086 23.1045 25.8096 22.2048C24.9105 21.305 24.4056 20.085 24.4061 18.8131C24.4065 17.5411 24.9122 16.3215 25.812 15.4224ZM30.8976 17.1216C30.6752 16.8989 30.4112 16.7222 30.1205 16.6016C29.8299 16.481 29.5183 16.4187 29.2037 16.4185C28.889 16.4183 28.5773 16.4801 28.2865 16.6003C27.9957 16.7205 27.7314 16.8968 27.5088 17.1192C27.0591 17.5682 26.8062 18.1775 26.8057 18.8131C26.8053 19.4486 27.0573 20.0583 27.5064 20.508C27.9554 20.9577 28.5647 21.2106 29.2003 21.211C29.8358 21.2115 30.4455 20.9594 30.8952 20.5104C31.3449 20.0613 31.5978 19.452 31.5982 18.8165C31.5987 18.1809 31.3466 17.5713 30.8976 17.1216ZM28.1976 34.8096C27.5265 35.1275 26.7735 35.2302 26.0417 35.1034C25.31 34.9767 24.6354 34.6267 24.1104 34.1016L22.6464 32.64L20.8896 35.568C20.7959 35.7243 20.6678 35.8573 20.515 35.9568C20.3622 36.0562 20.1888 36.1196 20.0079 36.142C19.827 36.1645 19.6434 36.1454 19.471 36.0863C19.2985 36.0271 19.1418 35.9295 19.0128 35.8008L12.2208 29.0064C12.0919 28.8775 11.9941 28.7209 11.9348 28.5486C11.8755 28.3763 11.8562 28.1927 11.8784 28.0118C11.9006 27.8309 11.9637 27.6574 12.063 27.5046C12.1622 27.3517 12.295 27.2235 12.4512 27.1296L15.3792 25.3728L13.9152 23.9088C13.39 23.3837 13.0401 22.7091 12.9133 21.9774C12.7866 21.2457 12.8892 20.4927 13.2072 19.8216L10.5192 17.1336C10.2942 16.9085 10.1678 16.6034 10.1678 16.2852C10.1678 15.967 10.2942 15.6618 10.5192 15.4368L13.0632 12.8928C14.1149 11.8393 15.4673 11.1377 16.9342 10.8845C18.4011 10.6314 19.9104 10.8391 21.2544 11.4792L23.5056 9.23037C25.4548 7.27912 27.9015 5.89918 30.5797 5.24041C33.258 4.58163 36.0656 4.66919 38.6976 5.49357C40.5216 6.06477 41.9544 7.49517 42.5256 9.32157C43.3499 11.9536 43.4375 14.7611 42.7787 17.4394C42.1199 20.1177 40.74 22.5643 38.7888 24.5136L36.54 26.7648C37.1797 28.109 37.3871 29.6184 37.1335 31.0854C36.8799 32.5523 36.1778 33.9045 35.124 34.956L32.5824 37.5C32.3573 37.7249 32.0522 37.8513 31.734 37.8513C31.4158 37.8513 31.1106 37.7249 30.8856 37.5L28.1976 34.8096ZM37.98 7.78557C35.7664 7.09194 33.405 7.01804 31.1524 7.57189C28.8998 8.12574 26.8419 9.28617 25.2024 10.9272L23.244 12.8832L23.2536 12.8928L21.5568 14.5896L21.5472 14.58L16.4544 19.6728L16.464 19.6824L15.4968 20.6496C15.3256 20.8806 15.2431 21.1654 15.2642 21.4522C15.2854 21.7389 15.4088 22.0085 15.612 22.212L25.8072 32.4048C26.011 32.6082 26.2813 32.7316 26.5686 32.7523C26.8559 32.773 27.141 32.6897 27.372 32.5176L28.3368 31.5552L28.344 31.5648L33.4368 26.472L33.4296 26.4624L35.1264 24.7656L35.1336 24.7752L37.092 22.8168C38.7338 21.1772 39.895 19.1191 40.4492 16.866C41.0035 14.6128 40.9298 12.2509 40.236 10.0368C40.07 9.50706 39.7781 9.02551 39.3851 8.63342C38.9922 8.24132 38.51 7.95039 37.98 7.78557ZM30.0432 33.2616L31.7328 34.9536L33.4296 33.2568C34.0256 32.662 34.4547 31.9209 34.6737 31.1079C34.8928 30.2948 34.8941 29.4385 34.6776 28.6248L30.0432 33.2616ZM19.392 13.3416C18.5783 13.125 17.7219 13.1264 16.9089 13.3454C16.0958 13.5645 15.3547 13.9935 14.76 14.5896L13.0656 16.2864L14.7576 17.976L19.392 13.3416ZM20.8968 30.8904L17.1288 27.1224L15.0024 28.3944L19.6224 33.0168L20.8968 30.8904ZM13.9272 35.7864C14.0461 35.6767 14.1417 35.5442 14.2081 35.3967C14.2745 35.2492 14.3104 35.0897 14.3136 34.928C14.3169 34.7663 14.2874 34.6055 14.2269 34.4555C14.1664 34.3055 14.0763 34.1692 13.9618 34.0549C13.8473 33.9406 13.7109 33.8506 13.5608 33.7903C13.4107 33.7301 13.2499 33.7008 13.0882 33.7043C12.9264 33.7077 12.7671 33.7439 12.6197 33.8105C12.4722 33.8771 12.3398 33.9729 12.2304 34.092L7.98716 38.3352C7.87255 38.4459 7.78113 38.5783 7.71824 38.7247C7.65535 38.8711 7.62224 39.0286 7.62086 39.1879C7.61947 39.3472 7.64984 39.5052 7.71017 39.6527C7.77051 39.8002 7.85962 39.9342 7.97229 40.0468C8.08496 40.1595 8.21894 40.2486 8.36642 40.309C8.51389 40.3693 8.67191 40.3997 8.83124 40.3983C8.99058 40.3969 9.14804 40.3638 9.29445 40.3009C9.44085 40.238 9.57326 40.1466 9.68396 40.032L13.9272 35.7864ZM10.5312 30.696C10.7561 30.921 10.8825 31.2262 10.8825 31.5444C10.8825 31.8626 10.7561 32.1677 10.5312 32.3928L8.82716 34.0944C8.60053 34.3127 8.29723 34.4332 7.98259 34.43C7.66794 34.4269 7.36713 34.3002 7.14495 34.0774C6.92277 33.8546 6.79699 33.5534 6.79471 33.2388C6.79243 32.9241 6.91383 32.6212 7.13276 32.3952L8.83436 30.696C9.05939 30.471 9.36456 30.3446 9.68276 30.3446C10.001 30.3446 10.3061 30.471 10.5312 30.696ZM17.3232 39.1848C17.5417 38.9584 17.6627 38.6553 17.66 38.3407C17.6572 38.0261 17.531 37.7251 17.3085 37.5026C17.0861 37.2801 16.7851 37.1539 16.4704 37.1512C16.1558 37.1484 15.8527 37.2694 15.6264 37.488L13.9248 39.1896C13.8101 39.3003 13.7187 39.4327 13.6558 39.5791C13.5929 39.7255 13.5598 39.883 13.5585 40.0423C13.5571 40.2016 13.5874 40.3596 13.6478 40.5071C13.7081 40.6546 13.7972 40.7886 13.9099 40.9012C14.0226 41.0139 14.1565 41.103 14.304 41.1634C14.4515 41.2237 14.6095 41.2541 14.7688 41.2527C14.9282 41.2513 15.0856 41.2182 15.232 41.1553C15.3785 41.0924 15.5109 41.001 15.6216 40.8864L17.3232 39.1848Z" fill="#04459F"/>
</svg>
