<svg width="28" height="28" viewBox="0 0 28 28" fill="none" xmlns="http://www.w3.org/2000/svg">
<path d="M10.5 6.9998C10.3143 6.9998 10.1363 7.07355 10.005 7.20483C9.87374 7.33611 9.79999 7.51415 9.79999 7.6998C9.79999 7.88546 9.87374 8.0635 10.005 8.19478C10.1363 8.32605 10.3143 8.3998 10.5 8.3998H17.5C17.6856 8.3998 17.8637 8.32605 17.995 8.19478C18.1262 8.0635 18.2 7.88546 18.2 7.6998C18.2 7.51415 18.1262 7.33611 17.995 7.20483C17.8637 7.07355 17.6856 6.9998 17.5 6.9998H10.5ZM9.79999 17.4998C9.79999 17.3142 9.87374 17.1361 10.005 17.0048C10.1363 16.8736 10.3143 16.7998 10.5 16.7998H17.5C17.6856 16.7998 17.8637 16.8736 17.995 17.0048C18.1262 17.1361 18.2 17.3142 18.2 17.4998C18.2 17.6855 18.1262 17.8635 17.995 17.9948C17.8637 18.1261 17.6856 18.1998 17.5 18.1998H10.5C10.3143 18.1998 10.1363 18.1261 10.005 17.9948C9.87374 17.8635 9.79999 17.6855 9.79999 17.4998ZM10.5 19.5998C10.3143 19.5998 10.1363 19.6736 10.005 19.8048C9.87374 19.9361 9.79999 20.1142 9.79999 20.2998C9.79999 20.4855 9.87374 20.6635 10.005 20.7948C10.1363 20.9261 10.3143 20.9998 10.5 20.9998H17.5C17.6856 20.9998 17.8637 20.9261 17.995 20.7948C18.1262 20.6635 18.2 20.4855 18.2 20.2998C18.2 20.1142 18.1262 19.9361 17.995 19.8048C17.8637 19.6736 17.6856 19.5998 17.5 19.5998H10.5ZM6.99999 6.2998C6.99999 5.37155 7.36874 4.48131 8.02511 3.82493C8.68149 3.16855 9.57173 2.7998 10.5 2.7998H17.5C18.4282 2.7998 19.3185 3.16855 19.9749 3.82493C20.6312 4.48131 21 5.37155 21 6.2998V6.9998H22.4C23.1426 6.9998 23.8548 7.2948 24.3799 7.81991C24.905 8.34501 25.2 9.0572 25.2 9.7998V19.5998C25.2 20.3424 24.905 21.0546 24.3799 21.5797C23.8548 22.1048 23.1426 22.3998 22.4 22.3998H20.93C20.7686 23.1904 20.3391 23.9009 19.714 24.4111C19.089 24.9214 18.3068 25.2 17.5 25.1998H10.5C9.69313 25.2 8.911 24.9214 8.28596 24.4111C7.66091 23.9009 7.23136 23.1904 7.06999 22.3998H5.59999C4.85738 22.3998 4.14519 22.1048 3.62009 21.5797C3.09499 21.0546 2.79999 20.3424 2.79999 19.5998V9.7998C2.79999 9.0572 3.09499 8.34501 3.62009 7.81991C4.14519 7.2948 4.85738 6.9998 5.59999 6.9998H6.99999V6.2998ZM21 20.9998H22.4C22.7713 20.9998 23.1274 20.8523 23.3899 20.5898C23.6525 20.3272 23.8 19.9711 23.8 19.5998V9.7998C23.8 9.4285 23.6525 9.07241 23.3899 8.80986C23.1274 8.5473 22.7713 8.3998 22.4 8.3998H21V20.9998ZM6.99999 8.3998H5.59999C5.22868 8.3998 4.87259 8.5473 4.61004 8.80986C4.34749 9.07241 4.19999 9.4285 4.19999 9.7998V19.5998C4.19999 19.9711 4.34749 20.3272 4.61004 20.5898C4.87259 20.8523 5.22868 20.9998 5.59999 20.9998H6.99999V8.3998ZM10.5 4.1998C9.94303 4.1998 9.40889 4.42105 9.01506 4.81488C8.62124 5.20871 8.39999 5.74285 8.39999 6.2998V21.6998C8.39999 22.2568 8.62124 22.7909 9.01506 23.1847C9.40889 23.5786 9.94303 23.7998 10.5 23.7998H17.5C18.0569 23.7998 18.5911 23.5786 18.9849 23.1847C19.3787 22.7909 19.6 22.2568 19.6 21.6998V6.2998C19.6 5.74285 19.3787 5.20871 18.9849 4.81488C18.5911 4.42105 18.0569 4.1998 17.5 4.1998H10.5Z" fill="#0451BF"/>
</svg>
