<svg width="48" height="48" viewBox="0 0 48 48" fill="none" xmlns="http://www.w3.org/2000/svg">
<path d="M18 12C17.6817 12 17.3765 12.1264 17.1515 12.3515C16.9264 12.5765 16.8 12.8817 16.8 13.2C16.8 13.5182 16.9264 13.8235 17.1515 14.0485C17.3765 14.2736 17.6817 14.4 18 14.4H30C30.3183 14.4 30.6235 14.2736 30.8485 14.0485C31.0736 13.8235 31.2 13.5182 31.2 13.2C31.2 12.8817 31.0736 12.5765 30.8485 12.3515C30.6235 12.1264 30.3183 12 30 12H18ZM16.8 30C16.8 29.6817 16.9264 29.3765 17.1515 29.1515C17.3765 28.9264 17.6817 28.8 18 28.8H30C30.3183 28.8 30.6235 28.9264 30.8485 29.1515C31.0736 29.3765 31.2 29.6817 31.2 30C31.2 30.3182 31.0736 30.6235 30.8485 30.8485C30.6235 31.0736 30.3183 31.2 30 31.2H18C17.6817 31.2 17.3765 31.0736 17.1515 30.8485C16.9264 30.6235 16.8 30.3182 16.8 30ZM33.6 10.8V31.2H36V10.8C36 9.20869 35.3679 7.68257 34.2426 6.55735C33.1174 5.43213 31.5913 4.79999 30 4.79999H18C16.4087 4.79999 14.8826 5.43213 13.7574 6.55735C12.6321 7.68257 12 9.20869 12 10.8V37.2C12 38.7913 12.6321 40.3174 13.7574 41.4426C14.8826 42.5678 16.4087 43.2 18 43.2H22.4088C22.0485 42.4408 21.8042 41.6317 21.684 40.8H18C17.0452 40.8 16.1295 40.4207 15.4544 39.7456C14.7793 39.0704 14.4 38.1548 14.4 37.2V10.8C14.4 9.84521 14.7793 8.92953 15.4544 8.2544C16.1295 7.57927 17.0452 7.19999 18 7.19999H30C30.9548 7.19999 31.8705 7.57927 32.5456 8.2544C33.2207 8.92953 33.6 9.84521 33.6 10.8ZM22.4088 36C22.8333 35.1054 23.4126 34.2929 24.12 33.6H18C17.6817 33.6 17.3765 33.7264 17.1515 33.9515C16.9264 34.1765 16.8 34.4817 16.8 34.8C16.8 35.1182 16.9264 35.4235 17.1515 35.6485C17.3765 35.8736 17.6817 36 18 36H22.4088ZM30 33.6C28.4087 33.6 26.8826 34.2321 25.7574 35.3573C24.6321 36.4826 24 38.0087 24 39.6C24 41.1913 24.6321 42.7174 25.7574 43.8426C26.8826 44.9678 28.4087 45.6 30 45.6H31.2C31.5183 45.6 31.8235 45.4736 32.0485 45.2485C32.2736 45.0235 32.4 44.7183 32.4 44.4C32.4 44.0817 32.2736 43.7765 32.0485 43.5515C31.8235 43.3264 31.5183 43.2 31.2 43.2H30C29.0452 43.2 28.1295 42.8207 27.4544 42.1456C26.7793 41.4704 26.4 40.5548 26.4 39.6C26.4 38.6452 26.7793 37.7295 27.4544 37.0544C28.1295 36.3793 29.0452 36 30 36H31.2C31.5183 36 31.8235 35.8736 32.0485 35.6485C32.2736 35.4235 32.4 35.1182 32.4 34.8C32.4 34.4817 32.2736 34.1765 32.0485 33.9515C31.8235 33.7264 31.5183 33.6 31.2 33.6H30ZM38.4 33.6C38.0817 33.6 37.7765 33.7264 37.5515 33.9515C37.3264 34.1765 37.2 34.4817 37.2 34.8C37.2 35.1182 37.3264 35.4235 37.5515 35.6485C37.7765 35.8736 38.0817 36 38.4 36H39.6C40.5548 36 41.4705 36.3793 42.1456 37.0544C42.8207 37.7295 43.2 38.6452 43.2 39.6C43.2 40.5548 42.8207 41.4704 42.1456 42.1456C41.4705 42.8207 40.5548 43.2 39.6 43.2H38.4C38.0817 43.2 37.7765 43.3264 37.5515 43.5515C37.3264 43.7765 37.2 44.0817 37.2 44.4C37.2 44.7183 37.3264 45.0235 37.5515 45.2485C37.7765 45.4736 38.0817 45.6 38.4 45.6H39.6C41.1913 45.6 42.7174 44.9678 43.8426 43.8426C44.9679 42.7174 45.6 41.1913 45.6 39.6C45.6 38.0087 44.9679 36.4826 43.8426 35.3573C42.7174 34.2321 41.1913 33.6 39.6 33.6H38.4ZM28.8 39.6C28.8 39.2817 28.9264 38.9765 29.1515 38.7515C29.3765 38.5264 29.6817 38.4 30 38.4H39.6C39.9183 38.4 40.2235 38.5264 40.4485 38.7515C40.6736 38.9765 40.8 39.2817 40.8 39.6C40.8 39.9182 40.6736 40.2235 40.4485 40.4485C40.2235 40.6736 39.9183 40.8 39.6 40.8H30C29.6817 40.8 29.3765 40.6736 29.1515 40.4485C28.9264 40.2235 28.8 39.9182 28.8 39.6Z" fill="#04459F"/>
</svg>
