<svg width="48" height="48" viewBox="0 0 48 48" fill="none" xmlns="http://www.w3.org/2000/svg">
<path d="M34.8 24C37.6643 24 40.4113 25.1379 42.4367 27.1633C44.4621 29.1887 45.6 31.9357 45.6 34.8C45.6 37.6644 44.4621 40.4114 42.4367 42.4368C40.4113 44.4622 37.6643 45.6 34.8 45.6C31.9356 45.6 29.1886 44.4622 27.1632 42.4368C25.1378 40.4114 24 37.6644 24 34.8C24 31.9357 25.1378 29.1887 27.1632 27.1633C29.1886 25.1379 31.9356 24 34.8 24ZM34.8 7.20001C36.3913 7.20001 37.9174 7.83215 39.0426 8.95737C40.1678 10.0826 40.8 11.6087 40.8 13.2V23.04C40.0326 22.6489 39.2287 22.3338 38.4 22.0992V19.2H31.2V22.0992C30.3711 22.3345 29.5673 22.6504 28.8 23.0424V19.2H19.2V28.8H23.0448C22.652 29.5672 22.3352 30.3711 22.0992 31.2H19.2V38.4H22.0992C22.3376 39.2384 22.6528 40.0384 23.0448 40.8H13.2C11.6087 40.8 10.0825 40.1679 8.95731 39.0427C7.83209 37.9174 7.19995 36.3913 7.19995 34.8V13.2C7.19995 11.6087 7.83209 10.0826 8.95731 8.95737C10.0825 7.83215 11.6087 7.20001 13.2 7.20001H34.8ZM39.2496 30.3528C39.0245 30.1278 38.7193 30.0015 38.4012 30.0015C38.083 30.0015 37.7778 30.1278 37.5528 30.3528L34.8 33.1032L32.0496 30.3528C31.9389 30.2382 31.8064 30.1468 31.66 30.0839C31.5136 30.021 31.3562 29.9879 31.1968 29.9865C31.0375 29.9851 30.8795 30.0155 30.732 30.0758C30.5845 30.1362 30.4505 30.2253 30.3379 30.3379C30.2252 30.4506 30.1361 30.5846 30.0758 30.7321C30.0154 30.8795 29.9851 31.0376 29.9865 31.1969C29.9878 31.3562 30.0209 31.5137 30.0838 31.6601C30.1467 31.8065 30.2381 31.9389 30.3528 32.0496L33.1032 34.8L30.3528 37.5504C30.2381 37.6611 30.1467 37.7935 30.0838 37.9399C30.0209 38.0863 29.9878 38.2438 29.9865 38.4031C29.9851 38.5625 30.0154 38.7205 30.0758 38.868C30.1361 39.0154 30.2252 39.1494 30.3379 39.2621C30.4505 39.3748 30.5845 39.4639 30.732 39.5242C30.8795 39.5845 31.0375 39.6149 31.1968 39.6135C31.3562 39.6121 31.5136 39.579 31.66 39.5161C31.8064 39.4532 31.9389 39.3618 32.0496 39.2472L34.8 36.4968L37.5504 39.2472C37.661 39.3618 37.7935 39.4532 37.9399 39.5161C38.0863 39.579 38.2437 39.6121 38.4031 39.6135C38.5624 39.6149 38.7204 39.5845 38.8679 39.5242C39.0154 39.4639 39.1494 39.3748 39.262 39.2621C39.3747 39.1494 39.4638 39.0154 39.5241 38.868C39.5845 38.7205 39.6148 38.5625 39.6135 38.4031C39.6121 38.2438 39.579 38.0863 39.5161 37.9399C39.4532 37.7935 39.3618 37.6611 39.2472 37.5504L36.4992 34.8L39.2496 32.0496C39.4745 31.8246 39.6009 31.5194 39.6009 31.2012C39.6009 30.883 39.4745 30.5778 39.2496 30.3528ZM13.2 9.60001C12.3054 9.6 11.4429 9.93303 10.7805 10.5342C10.1181 11.1354 9.70322 11.9617 9.61675 12.852L9.59995 34.8C9.59994 35.6946 9.93297 36.5571 10.5341 37.2195C11.1353 37.8819 11.9616 38.2967 12.852 38.3832L13.2 38.4H16.8V16.8H38.4V13.2C38.4 12.3055 38.0669 11.443 37.4658 10.7806C36.8646 10.1181 36.0383 9.70328 35.148 9.61681L34.8 9.60001H13.2Z" fill="#04459F"/>
</svg>
