<svg width="48" height="48" viewBox="0 0 48 48" fill="none" xmlns="http://www.w3.org/2000/svg">
<path d="M43.1088 12.7417C43.1998 12.9609 43.2238 13.2022 43.1777 13.435C43.1315 13.6678 43.0174 13.8817 42.8497 14.0497L38.0497 18.8497C37.938 18.961 37.8055 19.0493 37.6597 19.1094C37.5139 19.1696 37.3577 19.2004 37.2001 19.2001H30.4968L27.2496 22.4473C27.6157 23.2136 27.699 24.0846 27.4849 24.9064C27.2709 25.7283 26.7731 26.4479 26.0797 26.9383C25.3864 27.4286 24.5419 27.658 23.6958 27.5859C22.8496 27.5139 22.0561 27.145 21.4556 26.5445C20.8551 25.944 20.4862 25.1505 20.4142 24.3044C20.3421 23.4582 20.5715 22.6138 21.0619 21.9204C21.5522 21.227 22.2719 20.7293 23.0937 20.5152C23.9155 20.3011 24.7865 20.3844 25.5529 20.7505L28.8 17.5033V10.8001C28.7998 10.6424 28.8306 10.4862 28.8907 10.3404C28.9508 10.1946 29.0391 10.0621 29.1504 9.95047L33.9504 5.15047C34.1183 4.98222 34.3323 4.86758 34.5654 4.8211C34.7984 4.77462 35.04 4.79839 35.2596 4.88939C35.4791 4.98039 35.6667 5.13453 35.7985 5.33227C35.9303 5.53 36.0005 5.76242 36 6.00007V12.0001H42C42.2375 12.0001 42.4696 12.0706 42.667 12.2026C42.8644 12.3346 43.0181 12.5222 43.1088 12.7417ZM39.1032 14.4001H34.8001C34.4818 14.4001 34.1766 14.2736 33.9515 14.0486C33.7265 13.8236 33.6 13.5183 33.6 13.2001V8.89687L31.2001 11.2969V16.8001H36.7033L39.1032 14.4001ZM42.2569 18.0361C42.8689 19.9129 43.2001 21.9193 43.2001 24.0001C43.1992 28.0559 41.9139 32.0073 39.5286 35.2876C37.1434 38.5679 33.7806 41.0086 29.9225 42.2597C26.0644 43.5107 21.9092 43.5079 18.0529 42.2516C14.1965 40.9953 10.837 38.5501 8.45616 35.2665C6.07532 31.983 4.79544 28.0299 4.80006 23.974C4.80468 19.9182 6.09356 15.968 8.48186 12.6899C10.8702 9.41179 14.2352 6.97421 18.0944 5.72669C21.9537 4.47918 26.1088 4.48583 29.964 5.74567L28.0248 7.68487C24.4623 6.80646 20.7101 7.11855 17.3416 8.57347C13.9731 10.0284 11.1735 12.5461 9.37066 15.742C7.56782 18.9378 6.86084 22.636 7.35774 26.2715C7.85464 29.9069 9.52811 33.2798 12.1224 35.8746C14.7167 38.4694 18.0892 40.1435 21.7246 40.6412C25.36 41.1388 29.0583 40.4325 32.2545 38.6303C35.4507 36.8281 37.969 34.029 39.4246 30.6608C40.8801 27.2926 41.193 23.5404 40.3153 19.9777L42.2569 18.0361ZM35.76 21.6001C35.92 22.3777 36 23.1777 36 24.0001C35.9995 26.4763 35.233 28.8918 33.8055 30.9152C32.378 32.9386 30.3595 34.4709 28.0268 35.3018C25.6942 36.1328 23.1615 36.2217 20.7763 35.5565C18.3911 34.8913 16.27 33.5044 14.7041 31.5861C13.1382 29.6679 12.204 27.3121 12.0298 24.842C11.8555 22.3719 12.4497 19.9083 13.7309 17.7892C15.012 15.6701 16.9173 13.9993 19.1856 13.0058C21.4538 12.0123 23.9738 11.7448 26.4 12.2401V14.7025C24.3612 14.1765 22.2059 14.3354 20.2663 15.1548C18.3266 15.9742 16.7101 17.4085 15.6658 19.237C14.6216 21.0654 14.2074 23.1864 14.4871 25.2734C14.7668 27.3603 15.7249 29.2975 17.2138 30.7864C18.7027 32.2753 20.6398 33.2334 22.7267 33.5131C24.8137 33.7928 26.9347 33.3786 28.7632 32.3343C30.5916 31.29 32.0259 29.6735 32.8453 27.7339C33.6647 25.7942 33.8236 23.6389 33.2976 21.6001H35.76Z" fill="#04459F"/>
</svg>
