<svg width="48" height="48" viewBox="0 0 48 48" fill="none" xmlns="http://www.w3.org/2000/svg">
<path d="M43 36C44.657 36 46 37.341 46 38.998V39.5C46 43 42.85 46 37 46C31.15 46 28 43 28 39.5V38.998C28.0005 38.2027 28.3168 37.4401 28.8794 36.878C29.4419 36.3158 30.2047 36 31 36H43ZM35.75 6C37.4076 6 38.9973 6.65848 40.1694 7.83058C41.3415 9.00269 42 10.5924 42 12.25V24.102C41.2946 23.3813 40.4418 22.8215 39.5 22.461V12.25C39.5 11.2554 39.1049 10.3016 38.4016 9.59835C37.6984 8.89509 36.7446 8.5 35.75 8.5H12.25C11.2554 8.5 10.3016 8.89509 9.59835 9.59835C8.89509 10.3016 8.5 11.2554 8.5 12.25V35.75C8.5 36.7446 8.89509 37.6984 9.59835 38.4016C10.3016 39.1049 11.2554 39.5 12.25 39.5H26C26 40.367 26.146 41.207 26.423 42H12.25C10.5924 42 9.00269 41.3415 7.83058 40.1694C6.65848 38.9973 6 37.4076 6 35.75V12.25C6 10.5924 6.65848 9.00269 7.83058 7.83058C9.00269 6.65848 10.5924 6 12.25 6H35.75ZM37 24C38.3261 24 39.5979 24.5268 40.5355 25.4645C41.4732 26.4021 42 27.6739 42 29C42 30.3261 41.4732 31.5979 40.5355 32.5355C39.5979 33.4732 38.3261 34 37 34C35.6739 34 34.4021 33.4732 33.4645 32.5355C32.5268 31.5979 32 30.3261 32 29C32 27.6739 32.5268 26.4021 33.4645 25.4645C34.4021 24.5268 35.6739 24 37 24ZM19.866 26.616C20.1005 26.3815 20.4184 26.2498 20.75 26.2498C21.0816 26.2498 21.3995 26.3815 21.634 26.616C21.8685 26.8505 22.0002 27.1684 22.0002 27.5C22.0002 27.8316 21.8685 28.1495 21.634 28.384L17.384 32.634C17.2679 32.7501 17.1301 32.8422 16.9784 32.9051C16.8268 32.9679 16.6642 33.0002 16.5 33.0002C16.3358 33.0002 16.1732 32.9679 16.0216 32.9051C15.8699 32.8422 15.7321 32.7501 15.616 32.634L13.366 30.384C13.1378 30.1577 13.0055 29.8523 12.9965 29.531C12.9876 29.2098 13.1027 28.8975 13.318 28.6589C13.5333 28.4203 13.8322 28.2738 14.1527 28.2498C14.4732 28.2258 14.7906 28.3261 15.039 28.53L15.134 28.616L16.5 29.982L19.866 26.616ZM30.02 28.5C29.9593 29.343 30.0518 30.19 30.293 31H26.25C25.9185 31 25.6005 30.8683 25.3661 30.6339C25.1317 30.3995 25 30.0815 25 29.75C25 29.4185 25.1317 29.1005 25.3661 28.8661C25.6005 28.6317 25.9185 28.5 26.25 28.5H30.02ZM19.866 15.616C20.1005 15.3815 20.4184 15.2498 20.75 15.2498C21.0816 15.2498 21.3995 15.3815 21.634 15.616C21.8685 15.8505 22.0002 16.1684 22.0002 16.5C22.0002 16.8316 21.8685 17.1495 21.634 17.384L17.384 21.634C17.2679 21.7501 17.1301 21.8422 16.9784 21.9051C16.8268 21.9679 16.6642 22.0002 16.5 22.0002C16.3358 22.0002 16.1732 21.9679 16.0216 21.9051C15.8699 21.8422 15.7321 21.7501 15.616 21.634L13.366 19.384C13.1378 19.1577 13.0055 18.8523 12.9965 18.531C12.9876 18.2098 13.1027 17.8975 13.318 17.6589C13.5333 17.4203 13.8322 17.2738 14.1527 17.2498C14.4732 17.2258 14.7906 17.3261 15.039 17.53L15.134 17.616L16.5 18.982L19.866 15.616ZM33.75 17C34.0815 17 34.3995 17.1317 34.6339 17.3661C34.8683 17.6005 35 17.9185 35 18.25C35 18.5815 34.8683 18.8995 34.6339 19.1339C34.3995 19.3683 34.0815 19.5 33.75 19.5H26.25C25.9185 19.5 25.6005 19.3683 25.3661 19.1339C25.1317 18.8995 25 18.5815 25 18.25C25 17.9185 25.1317 17.6005 25.3661 17.3661C25.6005 17.1317 25.9185 17 26.25 17H33.75Z" fill="#0451BF"/>
</svg>
